<svg width="100%" height="100%" viewBox="0 0 40 40" version="1.1" xmlns="http://www.w3.org/2000/svg" xmlns:xlink="http://www.w3.org/1999/xlink" xml:space="preserve" xmlns:serif="http://www.serif.com/">
    <path d="M18.458,32.375L7.083,20.958C6.916,20.819 6.805,20.674 6.75,20.521C6.695,20.368 6.667,20.195 6.667,20C6.667,19.805 6.695,19.632 6.75,19.479C6.805,19.326 6.916,19.181 7.083,19.042L18.5,7.625C18.75,7.375 19.063,7.243 19.438,7.229C19.813,7.215 20.139,7.347 20.417,7.625C20.694,7.903 20.833,8.229 20.833,8.604C20.833,8.979 20.694,9.306 20.417,9.583L11.375,18.625L31.375,18.625C31.764,18.625 32.09,18.757 32.354,19.021C32.618,19.285 32.75,19.611 32.75,20C32.75,20.389 32.618,20.715 32.354,20.979C32.09,21.243 31.764,21.375 31.375,21.375L11.375,21.375L20.458,30.458C20.708,30.708 20.833,31.021 20.833,31.396C20.833,31.771 20.694,32.097 20.417,32.375C20.139,32.653 19.813,32.792 19.438,32.792C19.063,32.792 18.736,32.653 18.458,32.375Z"/>
</svg>
