<svg width="100%" height="100%" viewBox="0 0 40 40" version="1.1" xmlns="http://www.w3.org/2000/svg" xmlns:xlink="http://www.w3.org/1999/xlink" xml:space="preserve" xmlns:serif="http://www.serif.com/">
    <path d="M21.458,36.667C21.097,36.667 20.743,36.604 20.396,36.479C20.049,36.354 19.736,36.153 19.458,35.875L4.125,20.542C3.847,20.264 3.646,19.951 3.521,19.604C3.396,19.257 3.333,18.903 3.333,18.542L3.333,6.125C3.333,5.32 3.597,4.653 4.125,4.125C4.653,3.597 5.32,3.333 6.125,3.333L18.542,3.333C18.903,3.333 19.264,3.396 19.625,3.521C19.986,3.646 20.32,3.847 20.625,4.125L35.875,19.417C36.458,20 36.75,20.674 36.75,21.438C36.75,22.201 36.458,22.875 35.875,23.458L23.458,35.875C23.208,36.125 22.909,36.319 22.562,36.458C22.215,36.597 21.847,36.667 21.458,36.667ZM21.5,33.958L33.917,21.542L18.542,6.125L6.125,6.125L6.125,18.542L21.5,33.958ZM10.417,12.667C11.028,12.667 11.562,12.445 12.021,12C12.479,11.555 12.708,11.014 12.708,10.375C12.708,9.764 12.479,9.236 12.021,8.792C11.562,8.347 11.028,8.125 10.417,8.125C9.806,8.125 9.271,8.347 8.812,8.792C8.354,9.236 8.125,9.764 8.125,10.375C8.125,11.014 8.354,11.555 8.812,12C9.271,12.445 9.806,12.667 10.417,12.667Z"/>
</svg>
