<svg width="100%" height="100%" viewBox="0 0 40 40" version="1.1" xmlns="http://www.w3.org/2000/svg" xmlns:xlink="http://www.w3.org/1999/xlink" xml:space="preserve" xmlns:serif="http://www.serif.com/">
    <path d="M14.667,29C14.417,28.722 14.285,28.389 14.271,28C14.257,27.611 14.389,27.292 14.667,27.042L21.708,19.958L14.625,12.875C14.375,12.625 14.257,12.299 14.271,11.896C14.285,11.493 14.417,11.167 14.667,10.917C14.944,10.639 15.271,10.5 15.646,10.5C16.021,10.5 16.347,10.639 16.625,10.917L24.708,19C24.847,19.139 24.945,19.291 25,19.458C25.055,19.625 25.083,19.791 25.083,19.958C25.083,20.153 25.055,20.326 25,20.479C24.945,20.632 24.847,20.791 24.708,20.958L16.625,29C16.375,29.278 16.056,29.41 15.667,29.396C15.278,29.382 14.944,29.25 14.667,29Z" />
</svg>
