<svg width="100%" height="100%" viewBox="0 0 40 40" version="1.1" xmlns="http://www.w3.org/2000/svg" xmlns:xlink="http://www.w3.org/1999/xlink" xml:space="preserve" xmlns:serif="http://www.serif.com/">
    <path d="M11,24.625C10.722,24.347 10.583,24.021 10.583,23.646C10.583,23.271 10.708,22.944 10.958,22.667L19.042,14.625C19.181,14.486 19.326,14.382 19.479,14.313C19.632,14.243 19.805,14.208 20,14.208C20.195,14.208 20.368,14.243 20.521,14.313C20.674,14.382 20.819,14.486 20.958,14.625L29.042,22.667C29.319,22.917 29.458,23.229 29.458,23.604C29.458,23.979 29.319,24.306 29.042,24.583C28.764,24.861 28.431,25 28.042,25C27.653,25 27.319,24.861 27.042,24.583L20,17.583L12.917,24.667C12.667,24.944 12.354,25.076 11.979,25.062C11.604,25.049 11.278,24.903 11,24.625Z"/>
</svg>
