<svg width="100%" height="100%" viewBox="0 0 40 40" version="1.1" xmlns="http://www.w3.org/2000/svg" xmlns:xlink="http://www.w3.org/1999/xlink" xml:space="preserve" xmlns:serif="http://www.serif.com/">
    <path d="M22.375,29L14.292,20.958C14.153,20.791 14.055,20.632 14,20.479C13.945,20.326 13.917,20.153 13.917,19.958C13.917,19.791 13.945,19.625 14,19.458C14.055,19.291 14.153,19.139 14.292,19L22.375,10.917C22.653,10.639 22.986,10.5 23.375,10.5C23.764,10.5 24.097,10.639 24.375,10.917C24.625,11.194 24.75,11.528 24.75,11.917C24.75,12.306 24.611,12.639 24.333,12.917L17.292,19.958L24.375,27.042C24.625,27.319 24.75,27.646 24.75,28.021C24.75,28.396 24.625,28.722 24.375,29C24.097,29.278 23.757,29.417 23.354,29.417C22.951,29.417 22.625,29.278 22.375,29Z"/>
</svg>
