<svg width="100%" height="100%" viewBox="0 0 40 40" version="1.1" xmlns="http://www.w3.org/2000/svg" xmlns:xlink="http://www.w3.org/1999/xlink" xml:space="preserve" xmlns:serif="http://www.serif.com/">
    <path d="M5,35L5,31.792L7.792,29L7.792,35L5,35ZM11.792,35L11.792,25.125L14.583,22.333L14.583,35L11.792,35ZM18.625,35L18.625,22.333L21.375,25.167L21.375,35L18.625,35ZM25.417,35L25.417,25.167L28.208,22.375L28.208,35L25.417,35ZM32.208,35L32.208,18.458L35,15.667L35,35L32.208,35ZM5,25.583L5,21.625L16.667,10.042L23.333,16.708L35,5L35,8.917L23.333,20.625L16.667,13.958L5,25.583Z"/>
</svg>
