<svg width="100%" height="100%" viewBox="0 0 40 40" version="1.1" xmlns="http://www.w3.org/2000/svg" xmlns:xlink="http://www.w3.org/1999/xlink" xml:space="preserve" xmlns:serif="http://www.serif.com/" >
    <path d="M7.792,32.208L9.792,32.208L26.875,15.125L24.875,13.125L7.792,30.208L7.792,32.208ZM32.792,13.125L26.875,7.25L28.792,5.292C29.319,4.764 29.979,4.507 30.771,4.521C31.562,4.535 32.222,4.806 32.75,5.333L34.708,7.292C35.236,7.819 35.507,8.465 35.521,9.229C35.535,9.993 35.278,10.639 34.75,11.167L32.792,13.125ZM6.417,35C6,35 5.66,34.868 5.396,34.604C5.132,34.34 5,34 5,33.583L5,29.667C5,29.472 5.035,29.292 5.104,29.125C5.173,28.958 5.278,28.806 5.417,28.667L24.875,9.208L30.792,15.125L11.333,34.583C11.194,34.722 11.042,34.827 10.875,34.896C10.708,34.965 10.528,35 10.333,35L6.417,35ZM26.875,15.125L24.875,13.125L26.875,15.125Z"/>
</svg>
