<svg width="100%" height="100%" viewBox="0 0 40 40" version="1.1" xmlns="http://www.w3.org/2000/svg" xmlns:xlink="http://www.w3.org/1999/xlink" xml:space="preserve" xmlns:serif="http://www.serif.com/">
    <path d="M9.458,36.667C8.708,36.667 8.055,36.389 7.5,35.833C6.945,35.278 6.667,34.625 6.667,33.875L6.667,6.125C6.667,5.375 6.945,4.722 7.5,4.167C8.055,3.611 8.708,3.333 9.458,3.333L22.75,3.333C23.139,3.333 23.507,3.41 23.854,3.563C24.201,3.716 24.5,3.917 24.75,4.167L32.5,11.917C32.75,12.167 32.951,12.466 33.104,12.813C33.257,13.16 33.333,13.528 33.333,13.917L33.333,33.875C33.333,34.625 33.055,35.278 32.5,35.833C31.945,36.389 31.292,36.667 30.542,36.667L9.458,36.667ZM22.542,12.667L22.542,6.125L9.458,6.125L9.458,33.875L30.542,33.875L30.542,14.042L23.917,14.042C23.528,14.042 23.201,13.91 22.938,13.646C22.674,13.382 22.542,13.056 22.542,12.667ZM9.458,6.125L9.458,14.042L9.458,6.125L9.458,33.875L9.458,6.125Z"/>
</svg>
