<svg width="100%" height="100%" viewBox="0 0 40 40" version="1.1" xmlns="http://www.w3.org/2000/svg" xmlns:xlink="http://www.w3.org/1999/xlink" xml:space="preserve" xmlns:serif="http://www.serif.com/">
    <path d="M12.958,28.375L21.708,28.375C22.097,28.375 22.431,28.236 22.708,27.958C22.986,27.681 23.125,27.347 23.125,26.958C23.125,26.569 22.986,26.243 22.708,25.979C22.431,25.715 22.097,25.583 21.708,25.583L12.958,25.583C12.569,25.583 12.243,25.715 11.979,25.979C11.715,26.243 11.583,26.569 11.583,26.958C11.583,27.375 11.715,27.715 11.979,27.979C12.243,28.243 12.569,28.375 12.958,28.375ZM12.958,21.375L27.042,21.375C27.431,21.375 27.757,21.243 28.021,20.979C28.285,20.715 28.417,20.389 28.417,20C28.417,19.611 28.285,19.285 28.021,19.021C27.757,18.757 27.431,18.625 27.042,18.625L12.958,18.625C12.569,18.625 12.243,18.757 11.979,19.021C11.715,19.285 11.583,19.611 11.583,20C11.583,20.389 11.715,20.715 11.979,20.979C12.243,21.243 12.569,21.375 12.958,21.375ZM12.958,14.417L27.042,14.417C27.431,14.417 27.757,14.285 28.021,14.021C28.285,13.757 28.417,13.431 28.417,13.042C28.417,12.625 28.285,12.285 28.021,12.021C27.757,11.757 27.431,11.625 27.042,11.625L12.958,11.625C12.569,11.625 12.243,11.764 11.979,12.042C11.715,12.319 11.583,12.653 11.583,13.042C11.583,13.431 11.715,13.757 11.979,14.021C12.243,14.285 12.569,14.417 12.958,14.417ZM7.792,35C7.042,35 6.389,34.722 5.833,34.167C5.278,33.611 5,32.958 5,32.208L5,7.792C5,7.042 5.278,6.389 5.833,5.833C6.389,5.278 7.042,5 7.792,5L32.208,5C32.958,5 33.611,5.278 34.167,5.833C34.722,6.389 35,7.042 35,7.792L35,32.208C35,32.958 34.722,33.611 34.167,34.167C33.611,34.722 32.958,35 32.208,35L7.792,35ZM7.792,32.208L32.208,32.208L32.208,7.792L7.792,7.792L7.792,32.208ZM7.792,32.208L7.792,7.792L7.792,32.208Z"/>
</svg>
