<svg width="100%" height="100%" viewBox="0 0 40 40" version="1.1" xmlns="http://www.w3.org/2000/svg" xmlns:xlink="http://www.w3.org/1999/xlink" xml:space="preserve" xmlns:serif="http://www.serif.com/">
    <path d="M14.583,23.958L31,23.958L25.542,16.708L21.417,22.125L18.667,18.625L14.583,23.958ZM11.667,31.125C10.917,31.125 10.264,30.847 9.708,30.292C9.153,29.736 8.875,29.083 8.875,28.333L8.875,6.125C8.875,5.375 9.153,4.722 9.708,4.167C10.264,3.611 10.917,3.333 11.667,3.333L33.875,3.333C34.625,3.333 35.278,3.611 35.833,4.167C36.389,4.722 36.667,5.375 36.667,6.125L36.667,28.333C36.667,29.083 36.389,29.736 35.833,30.292C35.278,30.847 34.625,31.125 33.875,31.125L11.667,31.125ZM11.667,28.333L33.875,28.333L33.875,6.125L11.667,6.125L11.667,28.333ZM6.125,36.667C5.375,36.667 4.722,36.389 4.167,35.833C3.611,35.278 3.333,34.625 3.333,33.875L3.333,8.875L6.125,8.875L6.125,33.875L31.125,33.875L31.125,36.667L6.125,36.667ZM11.667,6.125L11.667,28.333L11.667,6.125Z"/>
</svg>
