<svg width="100%" height="100%" viewBox="0 0 40 40" version="1.1" xmlns="http://www.w3.org/2000/svg" xmlns:xlink="http://www.w3.org/1999/xlink" xml:space="preserve" xmlns:serif="http://www.serif.com/">
    <path d="M9.458,36.667C8.681,36.667 8.021,36.396 7.479,35.854C6.938,35.313 6.667,34.653 6.667,33.875L6.667,16.292C6.667,15.514 6.938,14.854 7.479,14.312C8.021,13.771 8.681,13.5 9.458,13.5L11.958,13.5L11.958,9.708C11.958,7.486 12.743,5.59 14.312,4.021C15.882,2.452 17.778,1.667 20,1.667C22.222,1.667 24.118,2.452 25.688,4.021C27.257,5.59 28.042,7.486 28.042,9.708L28.042,13.5L30.542,13.5C31.319,13.5 31.979,13.771 32.521,14.312C33.062,14.854 33.333,15.514 33.333,16.292L33.333,33.875C33.333,34.653 33.062,35.313 32.521,35.854C31.979,36.396 31.319,36.667 30.542,36.667L9.458,36.667ZM9.458,33.875L30.542,33.875L30.542,16.292L9.458,16.292L9.458,33.875ZM20,28.333C20.889,28.333 21.653,28.021 22.292,27.396C22.931,26.771 23.25,26.014 23.25,25.125C23.25,24.264 22.931,23.5 22.292,22.833C21.653,22.166 20.889,21.833 20,21.833C19.111,21.833 18.347,22.166 17.708,22.833C17.069,23.5 16.75,24.278 16.75,25.167C16.75,26.028 17.069,26.771 17.708,27.396C18.347,28.021 19.111,28.333 20,28.333ZM14.708,13.5L25.292,13.5L25.292,9.708C25.292,8.264 24.778,7.028 23.75,6C22.722,4.972 21.472,4.458 20,4.458C18.528,4.458 17.278,4.972 16.25,6C15.222,7.028 14.708,8.264 14.708,9.708L14.708,13.5ZM9.458,33.875L9.458,16.292L9.458,33.875Z"/>
</svg>
