<svg width="100%" height="100%" viewBox="0 0 40 40" version="1.1" xmlns="http://www.w3.org/2000/svg" xmlns:xlink="http://www.w3.org/1999/xlink" xml:space="preserve" xmlns:serif="http://www.serif.com/">
    <path d="M26.417,26.625C26.167,26.347 26.042,26.014 26.042,25.625C26.042,25.236 26.167,24.903 26.417,24.625L29.667,21.375L16.792,21.375C16.403,21.375 16.076,21.243 15.812,20.979C15.549,20.715 15.417,20.389 15.417,20C15.417,19.611 15.549,19.285 15.812,19.021C16.076,18.757 16.403,18.625 16.792,18.625L29.625,18.625L26.333,15.333C26.083,15.083 25.958,14.764 25.958,14.375C25.958,13.986 26.097,13.653 26.375,13.375C26.625,13.097 26.944,12.958 27.333,12.958C27.722,12.958 28.056,13.097 28.333,13.375L34.042,19.042C34.181,19.209 34.278,19.368 34.333,19.521C34.389,19.674 34.417,19.847 34.417,20.042C34.417,20.209 34.389,20.375 34.333,20.542C34.278,20.709 34.181,20.861 34.042,21L28.375,26.667C28.097,26.944 27.771,27.076 27.396,27.062C27.021,27.049 26.694,26.903 26.417,26.625ZM7.792,35C7.042,35 6.389,34.722 5.833,34.167C5.278,33.611 5,32.958 5,32.208L5,7.792C5,7.042 5.278,6.389 5.833,5.833C6.389,5.278 7.042,5 7.792,5L18.375,5C18.764,5 19.09,5.132 19.354,5.396C19.618,5.66 19.75,5.986 19.75,6.375C19.75,6.792 19.618,7.132 19.354,7.396C19.09,7.66 18.764,7.792 18.375,7.792L7.792,7.792L7.792,32.208L18.375,32.208C18.764,32.208 19.09,32.347 19.354,32.625C19.618,32.903 19.75,33.236 19.75,33.625C19.75,34.014 19.618,34.34 19.354,34.604C19.09,34.868 18.764,35 18.375,35L7.792,35Z"/>
</svg>
