<svg width="100%" height="100%" viewBox="0 0 40 40" version="1.1" xmlns="http://www.w3.org/2000/svg" xmlns:xlink="http://www.w3.org/1999/xlink" xml:space="preserve" xmlns:serif="http://www.serif.com/">
    <path d="M18.333,35C16.25,35 14.298,34.604 12.479,33.812C10.66,33.021 9.076,31.951 7.729,30.604C6.382,29.257 5.312,27.673 4.521,25.854C3.729,24.035 3.333,22.083 3.333,20C3.333,15.833 4.791,12.292 7.708,9.375C10.625,6.458 14.18,5 18.375,5C18.875,5 19.375,5.028 19.875,5.083C20.375,5.139 20.889,5.222 21.417,5.333C21.694,5.389 21.937,5.542 22.146,5.792C22.354,6.042 22.458,6.334 22.458,6.667C22.458,7.139 22.285,7.507 21.938,7.771C21.591,8.035 21.167,8.125 20.667,8.042C20.278,7.959 19.896,7.896 19.521,7.854C19.146,7.813 18.764,7.792 18.375,7.792C14.958,7.792 12.063,8.972 9.688,11.333C7.313,13.694 6.125,16.583 6.125,20C6.125,23.417 7.306,26.306 9.667,28.667C12.028,31.028 14.916,32.208 18.333,32.208C21.722,32.208 24.604,31.028 26.979,28.667C29.354,26.306 30.542,23.431 30.542,20.042L30.542,19.583C30.542,19.416 30.528,19.25 30.5,19.083C30.472,18.666 30.597,18.305 30.875,18C31.153,17.695 31.5,17.542 31.917,17.542C32.278,17.542 32.583,17.66 32.833,17.896C33.083,18.132 33.236,18.417 33.292,18.75C33.319,18.972 33.333,19.18 33.333,19.375L33.333,20C33.333,24.167 31.875,27.708 28.958,30.625C26.041,33.542 22.5,35 18.333,35ZM31.792,14.75C31.375,14.75 31.035,14.618 30.771,14.354C30.507,14.09 30.375,13.764 30.375,13.375L30.375,9.625L26.625,9.625C26.236,9.625 25.903,9.486 25.625,9.208C25.347,8.931 25.208,8.597 25.208,8.208C25.208,7.819 25.347,7.493 25.625,7.229C25.903,6.965 26.236,6.833 26.625,6.833L30.375,6.833L30.375,3.042C30.375,2.653 30.514,2.326 30.792,2.063C31.069,1.799 31.403,1.667 31.792,1.667C32.181,1.667 32.507,1.799 32.771,2.063C33.035,2.326 33.167,2.653 33.167,3.042L33.167,6.833L36.958,6.833C37.347,6.833 37.674,6.965 37.938,7.229C38.201,7.493 38.333,7.819 38.333,8.208C38.333,8.625 38.201,8.965 37.938,9.229C37.674,9.493 37.347,9.625 36.958,9.625L33.167,9.625L33.167,13.375C33.167,13.764 33.035,14.09 32.771,14.354C32.507,14.618 32.181,14.75 31.792,14.75ZM22.125,26L17.208,21.042C17.041,20.903 16.93,20.75 16.875,20.583C16.82,20.416 16.792,20.25 16.792,20.083L16.792,13.042C16.792,12.653 16.924,12.326 17.188,12.063C17.451,11.799 17.778,11.667 18.167,11.667C18.556,11.667 18.882,11.799 19.146,12.063C19.41,12.326 19.542,12.653 19.542,13.042L19.542,19.542L24.083,24.042C24.361,24.319 24.5,24.646 24.5,25.021C24.5,25.396 24.361,25.722 24.083,26C23.806,26.278 23.479,26.417 23.104,26.417C22.729,26.417 22.403,26.278 22.125,26Z"/>
</svg>
