<svg width="100%" height="100%" viewBox="0 0 40 40" version="1.1" xmlns="http://www.w3.org/2000/svg" xmlns:xlink="http://www.w3.org/1999/xlink" xml:space="preserve" xmlns:serif="http://www.serif.com/">
    <path d="M8.042,31.667C7.653,31.667 7.326,31.535 7.062,31.271C6.799,31.007 6.667,30.681 6.667,30.292C6.667,29.875 6.799,29.535 7.062,29.271C7.326,29.007 7.653,28.875 8.042,28.875L10.125,28.875L10.125,16.5C10.125,14.222 10.813,12.166 12.188,10.333C13.563,8.5 15.375,7.333 17.625,6.833L17.625,5.625C17.625,4.986 17.854,4.445 18.312,4C18.771,3.555 19.333,3.333 20,3.333C20.667,3.333 21.229,3.555 21.688,4C22.146,4.445 22.375,4.986 22.375,5.625L22.375,6.833C24.625,7.333 26.444,8.5 27.833,10.333C29.222,12.166 29.917,14.222 29.917,16.5L29.917,28.875L31.958,28.875C32.347,28.875 32.674,29.014 32.938,29.292C33.201,29.569 33.333,29.903 33.333,30.292C33.333,30.681 33.201,31.007 32.938,31.271C32.674,31.535 32.347,31.667 31.958,31.667L8.042,31.667ZM20,36.667C19.111,36.667 18.334,36.341 17.667,35.688C17,35.035 16.667,34.25 16.667,33.333L23.333,33.333C23.333,34.25 23.007,35.035 22.354,35.688C21.701,36.341 20.917,36.667 20,36.667ZM12.875,28.875L27.125,28.875L27.125,16.5C27.125,14.5 26.444,12.806 25.083,11.417C23.722,10.028 22.042,9.333 20.042,9.333C18.042,9.333 16.347,10.028 14.958,11.417C13.569,12.806 12.875,14.5 12.875,16.5L12.875,28.875Z"/>
</svg>
