<svg width="100%" height="100%" viewBox="0 0 40 40" version="1.1" xmlns="http://www.w3.org/2000/svg" xmlns:xlink="http://www.w3.org/1999/xlink" xml:space="preserve" xmlns:serif="http://www.serif.com/">
    <path d="M7.792,36.667C7.042,36.667 6.389,36.375 5.833,35.792C5.278,35.209 5,34.556 5,33.833L5,13.875C4.583,13.736 4.201,13.424 3.854,12.938C3.507,12.451 3.333,11.903 3.333,11.292L3.333,6.125C3.333,5.375 3.611,4.722 4.167,4.167C4.722,3.611 5.375,3.333 6.125,3.333L33.875,3.333C34.625,3.333 35.278,3.611 35.833,4.167C36.389,4.722 36.667,5.375 36.667,6.125L36.667,11.292C36.667,11.903 36.493,12.451 36.146,12.938C35.799,13.424 35.417,13.736 35,13.875L35,33.833C35,34.556 34.722,35.209 34.167,35.792C33.611,36.375 32.958,36.667 32.208,36.667L7.792,36.667ZM7.792,14.083L7.792,33.875L32.208,33.875L32.208,14.083L7.792,14.083ZM33.875,11.292L33.875,6.125L6.125,6.125L6.125,11.292L33.875,11.292ZM16.375,22.708L23.625,22.708C24.014,22.708 24.34,22.569 24.604,22.292C24.868,22.014 25,21.681 25,21.292C25,20.903 24.868,20.576 24.604,20.312C24.34,20.049 24.014,19.917 23.625,19.917L16.375,19.917C15.986,19.917 15.66,20.049 15.396,20.312C15.132,20.576 15,20.903 15,21.292C15,21.709 15.132,22.049 15.396,22.312C15.66,22.576 15.986,22.708 16.375,22.708ZM7.792,33.875L7.792,14.083L7.792,33.875Z"/>
</svg>
