<?xml version="1.0" encoding="utf-8"?>
<!-- Generator: Adobe Illustrator 16.0.0, SVG Export Plug-In . SVG Version: 6.00 Build 0)  -->
<!DOCTYPE svg PUBLIC "-//W3C//DTD SVG 1.1//EN" "http://www.w3.org/Graphics/SVG/1.1/DTD/svg11.dtd">
<svg version="1.1" id="Layer_1" xmlns="http://www.w3.org/2000/svg" xmlns:xlink="http://www.w3.org/1999/xlink" x="0px" y="0px"
	 width="184.252px" height="85.04px" viewBox="0 0 184.252 85.04" enable-background="new 0 0 184.252 85.04" xml:space="preserve">
<rect fill-rule="evenodd" clip-rule="evenodd" fill="#C00418" width="184.252" height="85.04"/>
<path fill-rule="evenodd" clip-rule="evenodd" fill="#FFFFFF" d="M153.211,65.438c0.453,0,0.895,0.116,1.326,0.351
	c0.431,0.232,0.767,0.567,1.007,1.002s0.361,0.888,0.361,1.359c0,0.467-0.118,0.916-0.356,1.348
	c-0.236,0.431-0.568,0.765-0.996,1.003c-0.427,0.239-0.874,0.358-1.342,0.358c-0.467,0-0.914-0.119-1.341-0.358
	c-0.429-0.238-0.762-0.572-0.999-1.003c-0.237-0.432-0.357-0.881-0.357-1.348c0-0.472,0.121-0.925,0.362-1.359
	c0.243-0.435,0.578-0.77,1.01-1.002C152.317,65.554,152.759,65.438,153.211,65.438 M153.211,65.886
	c-0.379,0-0.747,0.099-1.105,0.293c-0.358,0.195-0.64,0.475-0.842,0.838c-0.202,0.361-0.304,0.74-0.304,1.133
	c0,0.39,0.101,0.765,0.299,1.123c0.199,0.358,0.478,0.637,0.835,0.836c0.356,0.2,0.73,0.301,1.117,0.301
	c0.389,0,0.762-0.101,1.119-0.301c0.356-0.199,0.635-0.478,0.833-0.836c0.197-0.358,0.296-0.733,0.296-1.123
	c0-0.393-0.102-0.771-0.303-1.133c-0.201-0.363-0.481-0.643-0.841-0.838C153.955,65.984,153.588,65.886,153.211,65.886z
	 M152.028,69.647V66.73h0.996c0.342,0,0.588,0.027,0.741,0.081c0.151,0.054,0.272,0.147,0.364,0.282
	c0.09,0.134,0.135,0.275,0.135,0.427c0,0.213-0.075,0.398-0.227,0.557s-0.353,0.247-0.603,0.267
	c0.103,0.042,0.186,0.094,0.248,0.154c0.115,0.115,0.258,0.308,0.428,0.578l0.354,0.571h-0.572l-0.257-0.459
	c-0.202-0.362-0.366-0.589-0.489-0.68c-0.085-0.067-0.211-0.101-0.375-0.101h-0.274v1.239H152.028z M113.218,46.188
	c-1.445-5.036-5.704-8.734-10.747-8.875c-0.097-0.002-0.193-0.004-0.291-0.004c-0.002,0-0.005,0-0.007,0
	c-0.097,0-0.194,0.001-0.291,0.004c-5.043,0.141-9.301,3.838-10.747,8.875H113.218z M47.455,37.348
	c-6.373,0-11.572,5.684-11.572,12.651l0.028,20.859h-7.557l-0.006-20.892c-0.005-8.294,4.479-15.497,10.94-18.854L39.283,31.1
	c0.086-0.045,0.173-0.089,0.26-0.133c0.032-0.016,0.063-0.032,0.095-0.047c0.125-0.062,0.252-0.123,0.379-0.182
	c0.014-0.006,0.028-0.013,0.042-0.019c2.132-0.987,4.463-1.561,6.906-1.629c0.003,0,0.007,0,0.01,0
	c0.16-0.004,0.32-0.007,0.48-0.007c0.002,0,0.004,0,0.007,0c0.161,0,0.321,0.002,0.481,0.007c0.003,0,0.007,0,0.01,0
	c2.447,0.068,4.782,0.644,6.917,1.633c0.008,0.003,0.016,0.007,0.023,0.011c0.13,0.061,0.26,0.123,0.389,0.187
	c0.031,0.015,0.062,0.031,0.093,0.047c0.051,0.025,0.102,0.052,0.153,0.078c-0.543,0.415-1.068,0.856-1.572,1.323
	c-1.735,1.476-3.163,3.24-4.272,5.195c-0.627-0.134-1.271-0.213-1.93-0.231c-0.097-0.003-0.194-0.004-0.292-0.004
	c-0.002,0-0.004,0-0.007,0V37.348z M75.969,41.833c-8.045-9.273-21.906-2.771-20.014,9.383L75.969,41.833z M82.237,37.494
	c0.039,0.05,0.078,0.101,0.117,0.152c0.026,0.034,0.052,0.068,0.078,0.103c0.071,0.094,0.141,0.189,0.211,0.285
	c0.012,0.016,0.023,0.031,0.035,0.047v0c0.436,0.603,0.846,1.233,1.227,1.89c-1.092,2.335-1.816,4.876-2.099,7.503l-0.536,0.251
	l-1.726,0.809l-20.385,9.558c6.297,7.204,17.246,5.077,19.702-4.023l7.373,2.719c-1.477,5.436-5.179,10.055-10.347,12.299
	c-9.958,4.339-21.425-1.443-25.659-11.021c-4.583-9.883-1.348-22.468,8.534-27.059C67.154,27.315,76.431,29.964,82.237,37.494z
	 M155.905,49.992c0.006,11.479-8.58,20.866-19.108,20.866c-9.335,0-17.143-7.382-18.792-17.078H91.149
	c1.458,5.012,5.706,8.688,10.733,8.828c0.097,0.002,0.194,0.004,0.291,0.004c0.002,0,0.005,0,0.007,0
	c0.098,0,0.194-0.002,0.291-0.004c3.247-0.091,6.17-1.656,8.226-4.104l5.538,5.599c-3.394,4.026-8.214,6.602-13.569,6.749
	c-0.161,0.004-0.323,0.007-0.485,0.007c-0.002,0-0.005,0-0.007,0c-0.162,0-0.324-0.003-0.485-0.007
	c-6.579-0.182-12.35-4.028-15.661-9.727c0.797-1.629,1.386-3.357,1.89-5.209l-4.444-1.64c-0.267-1.384-0.408-2.816-0.407-4.284
	l0-0.001c0-0.01,0-0.021,0-0.031c0-8.313,4.48-15.518,10.936-18.879c0.086-0.045,0.172-0.089,0.26-0.133
	c0.031-0.016,0.062-0.032,0.095-0.047c0.125-0.062,0.252-0.123,0.379-0.182c0.014-0.006,0.027-0.013,0.041-0.019
	c2.132-0.987,4.464-1.561,6.907-1.629c0.003,0,0.007,0,0.01,0c0.16-0.004,0.319-0.007,0.48-0.007c0.002,0,0.005,0,0.007,0
	c0.161,0,0.321,0.002,0.481,0.007c0.003,0,0.006,0,0.01,0c2.446,0.068,4.782,0.644,6.916,1.633c0.008,0.004,0.017,0.007,0.024,0.011
	c0.13,0.061,0.26,0.123,0.388,0.186c0.031,0.016,0.062,0.031,0.094,0.047c0.087,0.043,0.174,0.088,0.26,0.133
	c4.003,2.084,7.246,5.648,9.133,10.037c3.057-7.11,9.672-12.054,17.312-12.054c4.349,0,8.366,1.602,11.564,4.297l-0.02-19.195h7.557
	L155.905,49.992z M136.797,37.309c6.373,0,11.572,5.684,11.572,12.651c0,6.969-5.199,12.652-11.572,12.652
	c-6.374,0-11.572-5.684-11.572-12.652C125.225,42.993,130.423,37.309,136.797,37.309z M152.497,68.006h0.568
	c0.271,0,0.456-0.04,0.555-0.123c0.099-0.08,0.148-0.188,0.148-0.322c0-0.087-0.024-0.164-0.072-0.231
	c-0.047-0.068-0.113-0.12-0.197-0.153c-0.085-0.033-0.241-0.05-0.47-0.05h-0.532V68.006z"/>
</svg>
