<?xml version="1.0" encoding="UTF-8" standalone="no"?>
<!DOCTYPE svg PUBLIC "-//W3C//DTD SVG 1.1//EN" "http://www.w3.org/Graphics/SVG/1.1/DTD/svg11.dtd">
<svg width="100%" height="100%" viewBox="0 0 128 57" version="1.1" xmlns="http://www.w3.org/2000/svg" xmlns:xlink="http://www.w3.org/1999/xlink" xml:space="preserve" xmlns:serif="http://www.serif.com/" style="fill-rule:evenodd;clip-rule:evenodd;stroke-linejoin:round;stroke-miterlimit:2;">
    <g transform="matrix(1,0,0,1,-28,-14)">
        <path d="M153.211,65.438C153.664,65.438 154.106,65.554 154.537,65.789C154.968,66.021 155.304,66.356 155.544,66.791C155.784,67.226 155.905,67.679 155.905,68.15C155.905,68.617 155.787,69.066 155.549,69.498C155.313,69.929 154.981,70.263 154.553,70.501C154.126,70.74 153.679,70.859 153.211,70.859C152.744,70.859 152.297,70.74 151.87,70.501C151.441,70.263 151.108,69.929 150.871,69.498C150.634,69.066 150.514,68.617 150.514,68.15C150.514,67.678 150.635,67.225 150.876,66.791C151.119,66.356 151.454,66.021 151.886,65.789C152.317,65.554 152.759,65.438 153.211,65.438M153.211,65.886C152.832,65.886 152.464,65.985 152.106,66.179C151.748,66.374 151.466,66.654 151.264,67.017C151.062,67.378 150.96,67.757 150.96,68.15C150.96,68.54 151.061,68.915 151.259,69.273C151.458,69.631 151.737,69.91 152.094,70.109C152.45,70.309 152.824,70.41 153.211,70.41C153.6,70.41 153.973,70.309 154.33,70.109C154.686,69.91 154.965,69.631 155.163,69.273C155.36,68.915 155.459,68.54 155.459,68.15C155.459,67.757 155.357,67.379 155.156,67.017C154.955,66.654 154.675,66.374 154.315,66.179C153.955,65.984 153.588,65.886 153.211,65.886ZM152.028,69.647L152.028,66.73L153.024,66.73C153.366,66.73 153.612,66.757 153.765,66.811C153.916,66.865 154.037,66.958 154.129,67.093C154.219,67.227 154.264,67.368 154.264,67.52C154.264,67.733 154.189,67.918 154.037,68.077C153.885,68.236 153.684,68.324 153.434,68.344C153.537,68.386 153.62,68.438 153.682,68.498C153.797,68.613 153.94,68.806 154.11,69.076L154.464,69.647L153.892,69.647L153.635,69.188C153.433,68.826 153.269,68.599 153.146,68.508C153.061,68.441 152.935,68.407 152.771,68.407L152.497,68.407L152.497,69.646L152.028,69.646L152.028,69.647ZM113.218,46.188C111.773,41.152 107.514,37.454 102.471,37.313C102.374,37.311 102.278,37.309 102.18,37.309L102.173,37.309C102.076,37.309 101.979,37.31 101.882,37.313C96.839,37.454 92.581,41.151 91.135,46.188L113.218,46.188ZM47.455,37.348C41.082,37.348 35.883,43.032 35.883,49.999L35.911,70.858L28.354,70.858L28.348,49.966C28.343,41.672 32.827,34.469 39.288,31.112L39.283,31.1C39.369,31.055 39.456,31.011 39.543,30.967C39.575,30.951 39.606,30.935 39.638,30.92C39.763,30.858 39.89,30.797 40.017,30.738C40.031,30.732 40.045,30.725 40.059,30.719C42.191,29.732 44.522,29.158 46.965,29.09L46.975,29.09C47.135,29.086 47.295,29.083 47.455,29.083L47.462,29.083C47.623,29.083 47.783,29.085 47.943,29.09L47.953,29.09C50.4,29.158 52.735,29.734 54.87,30.723C54.878,30.726 54.886,30.73 54.893,30.734C55.023,30.795 55.153,30.857 55.282,30.921C55.313,30.936 55.344,30.952 55.375,30.968C55.426,30.993 55.477,31.02 55.528,31.046C54.985,31.461 54.46,31.902 53.956,32.369C52.221,33.845 50.793,35.609 49.684,37.564C49.057,37.43 48.413,37.351 47.754,37.333C47.657,37.33 47.56,37.329 47.462,37.329L47.455,37.329L47.455,37.348ZM75.969,41.833C67.924,32.56 54.063,39.062 55.955,51.216L75.969,41.833ZM82.237,37.494C82.276,37.544 82.315,37.595 82.354,37.646C82.38,37.68 82.406,37.714 82.432,37.749C82.503,37.843 82.573,37.938 82.643,38.034C82.655,38.05 82.666,38.065 82.678,38.081C83.114,38.684 83.524,39.314 83.905,39.971C82.813,42.306 82.089,44.847 81.806,47.474L81.27,47.725L79.544,48.534L59.159,58.092C65.456,65.296 76.405,63.169 78.861,54.069L86.234,56.788C84.757,62.224 81.055,66.843 75.887,69.087C65.929,73.426 54.462,67.644 50.228,58.066C45.645,48.183 48.88,35.598 58.762,31.007C67.154,27.315 76.431,29.964 82.237,37.494ZM155.905,49.992C155.911,61.471 147.325,70.858 136.797,70.858C127.462,70.858 119.654,63.476 118.005,53.78L91.149,53.78C92.607,58.792 96.855,62.468 101.882,62.608C101.979,62.61 102.076,62.612 102.173,62.612L102.18,62.612C102.278,62.612 102.374,62.61 102.471,62.608C105.718,62.517 108.641,60.952 110.697,58.504L116.235,64.103C112.841,68.129 108.021,70.705 102.666,70.852C102.505,70.856 102.343,70.859 102.181,70.859L102.174,70.859C102.012,70.859 101.85,70.856 101.689,70.852C95.11,70.67 89.339,66.824 86.028,61.125C86.825,59.496 87.414,57.768 87.918,55.916L83.474,54.276C83.207,52.892 83.066,51.46 83.067,49.992L83.067,49.96C83.067,41.647 87.547,34.442 94.003,31.081C94.089,31.036 94.175,30.992 94.263,30.948C94.294,30.932 94.325,30.916 94.358,30.901C94.483,30.839 94.61,30.778 94.737,30.719C94.751,30.713 94.764,30.706 94.778,30.7C96.91,29.713 99.242,29.139 101.685,29.071L101.695,29.071C101.855,29.067 102.014,29.064 102.175,29.064L102.182,29.064C102.343,29.064 102.503,29.066 102.663,29.071L102.673,29.071C105.119,29.139 107.455,29.715 109.589,30.704C109.597,30.708 109.606,30.711 109.613,30.715C109.743,30.776 109.873,30.838 110.001,30.901C110.032,30.917 110.063,30.932 110.095,30.948C110.182,30.991 110.269,31.036 110.355,31.081C114.358,33.165 117.601,36.729 119.488,41.118C122.545,34.008 129.16,29.064 136.8,29.064C141.149,29.064 145.166,30.666 148.364,33.361L148.344,14.166L155.901,14.166L155.905,49.992ZM136.797,37.309C143.17,37.309 148.369,42.993 148.369,49.96C148.369,56.929 143.17,62.612 136.797,62.612C130.423,62.612 125.225,56.928 125.225,49.96C125.225,42.993 130.423,37.309 136.797,37.309ZM152.497,68.006L153.065,68.006C153.336,68.006 153.521,67.966 153.62,67.883C153.719,67.803 153.768,67.695 153.768,67.561C153.768,67.474 153.744,67.397 153.696,67.33C153.649,67.262 153.583,67.21 153.499,67.177C153.414,67.144 153.258,67.127 153.029,67.127L152.497,67.127L152.497,68.006Z" style="fill:white;"/>
    </g>
</svg>
