<?xml version="1.0" encoding="UTF-8" standalone="no"?>
<!DOCTYPE svg PUBLIC "-//W3C//DTD SVG 1.1//EN" "http://www.w3.org/Graphics/SVG/1.1/DTD/svg11.dtd">
<svg width="100%" height="100%" viewBox="0 0 142 142" version="1.1" xmlns="http://www.w3.org/2000/svg" xmlns:xlink="http://www.w3.org/1999/xlink" xml:space="preserve" xmlns:serif="http://www.serif.com/" style="fill-rule:evenodd;clip-rule:evenodd;stroke-linejoin:round;stroke-miterlimit:2;">
    <g id="Warstwa_x0020_1">
        <g transform="matrix(2.5,0,0,2.5,-106.299,-106.299)">
            <path d="M42.52,70.866L70.866,70.866L70.866,99.213C55.219,99.213 42.52,86.513 42.52,70.866Z" style="fill:rgb(255,237,0);"/>
        </g>
        <g transform="matrix(2.5,0,0,2.5,-106.299,-106.299)">
            <path d="M99.213,70.866L70.866,70.866L70.866,42.52C86.513,42.52 99.213,55.219 99.213,70.866Z" style="fill:rgb(229,9,127);"/>
        </g>
        <g transform="matrix(2.5,0,0,2.5,-106.299,-106.299)">
            <path d="M42.52,70.866L70.866,70.866L70.866,42.52C55.219,42.52 42.52,55.219 42.52,70.866Z" style="fill:rgb(0,160,227);"/>
        </g>
        <g transform="matrix(2.5,0,0,2.5,-106.299,-106.299)">
            <path d="M70.866,70.866L99.213,70.866C99.213,86.513 86.513,99.213 70.866,99.213L70.866,70.866Z" style="fill:rgb(43,42,41);"/>
        </g>
    </g>
</svg>
