<?xml version="1.0" encoding="UTF-8" standalone="no"?>
<!DOCTYPE svg PUBLIC "-//W3C//DTD SVG 1.1//EN" "http://www.w3.org/Graphics/SVG/1.1/DTD/svg11.dtd">
<svg width="100%" height="100%" viewBox="0 0 1000 350" version="1.1" xmlns="http://www.w3.org/2000/svg" xmlns:xlink="http://www.w3.org/1999/xlink" xml:space="preserve" xmlns:serif="http://www.serif.com/" style="fill-rule:evenodd;clip-rule:evenodd;stroke-linejoin:round;stroke-miterlimit:2;">
    <g transform="matrix(1.72649,0,0,1.83993,-209.787,-364.856)">
        <text x="283.235px" y="207.035px" style="font-family:'ArialMT', 'Arial', sans-serif;font-size:12px;fill:rgb(255,148,28);">NC</text>
        <text x="303.901px" y="207.035px" style="font-family:'Arial-BoldMT', 'Arial', sans-serif;font-weight:700;font-size:12px;">=</text>
        <text x="314.243px" y="207.035px" style="font-family:'ArialMT', 'Arial', sans-serif;font-size:12px;fill:rgb(255,148,28);">NAKŁAD × CENA</text>
    </g>
    <g transform="matrix(1.72649,0,0,1.83993,-498.482,-236.62)">
        <text x="288.796px" y="153.167px" style="font-family:'Arial-Black', 'Arial', sans-serif;font-weight:900;font-size:12px;fill:rgb(255,148,28);">CEN<tspan x="316.675px 326.009px " y="153.167px 153.167px ">A </tspan>PR<tspan x="347.805px 357.802px " y="153.167px 153.167px ">OD</tspan>UKTU</text>
        <text x="409.124px" y="153.167px" style="font-family:'Arial-BoldMT', 'Arial', sans-serif;font-weight:700;font-size:12px;">= MAX(</text>
        <text x="450.128px" y="153.167px" style="font-family:'ArialMT', 'Arial', sans-serif;font-size:12px;fill:rgb(255,148,28);">NC</text>
        <text x="470.794px" y="153.167px" style="font-family:'Arial-BoldMT', 'Arial', sans-serif;font-weight:700;font-size:12px;">•</text>
        <text x="478.329px" y="153.167px" style="font-family:'Arial-BoldMT', 'Arial', sans-serif;font-weight:700;font-size:12px;">MARŻA<tspan x="521.208px 524.542px " y="153.167px 153.167px "> n</tspan>a PRODUKT<tspan x="599.882px " y="153.167px ">,</tspan></text>
        <text x="606.55px" y="153.167px" style="font-family:'ArialMT', 'Arial', sans-serif;font-size:12px;fill:rgb(255,148,28);">NC</text>
        <text x="627.216px" y="153.167px" style="font-family:'Arial-BoldMT', 'Arial', sans-serif;font-weight:700;font-size:12px;">+ MINIMUM na PRODUKT)</text>
    </g>
    <g transform="matrix(1.72649,0,0,1.83993,-272.159,-170.103)">
        <text x="296.367px" y="149.854px" style="font-family:'ArialMT', 'Arial', sans-serif;font-size:12px;fill:rgb(0,163,110);">CZOPN</text>
        <text x="341.701px" y="149.854px" style="font-family:'Arial-BoldMT', 'Arial', sans-serif;font-weight:700;font-size:12px;">=</text>
        <text x="352.043px" y="149.854px" style="font-family:'ArialMT', 'Arial', sans-serif;font-size:12px;fill:rgb(0,163,110);">CENA<tspan x="384.721px 388.055px " y="149.854px 149.854px "> Z</tspan>NAKOW<tspan x="440.273px 448.277px " y="149.854px 149.854px ">AN</tspan>IA<tspan x="467.619px 470.953px " y="149.854px 149.854px "> Z</tspan> ODPOWIEDNIEGO PRZEDZIAŁU NAKŁADÓW</text>
    </g>
    <g transform="matrix(1.72649,0,0,1.83993,0.121394,168.521)">
        <text x="0px" y="0px" style="font-family:'Arial-Black', 'Arial', sans-serif;font-weight:900;font-size:12px;fill:rgb(0,163,110);">CEN<tspan x="27.879px 37.213px " y="0px 0px ">A </tspan>ZN<tspan x="59.76px 69.094px 78.68px 88.471px 100.471px " y="0px 0px 0px 0px 0px ">AKOWA</tspan>NIA</text>
        <text x="137.139px" y="0px" style="font-family:'Arial-BoldMT', 'Arial', sans-serif;font-weight:700;font-size:12px;">= MAX(</text>
        <text x="178.143px" y="0px" style="font-family:'ArialMT', 'Arial', sans-serif;font-size:12px;fill:rgb(0,163,110);">Z</text>
        <text x="188.807px" y="0px" style="font-family:'Arial-BoldMT', 'Arial', sans-serif;font-weight:700;font-size:12px;">•</text>
        <text x="196.342px" y="0px" style="font-family:'Arial-BoldMT', 'Arial', sans-serif;font-weight:700;font-size:12px;">MARŻA<tspan x="239.221px 242.555px " y="0px 0px "> n</tspan>a ZNAKOW<tspan x="313.219px 321.885px " y="0px 0px ">AN</tspan>IE,</text>
        <text x="348.557px" y="0px" style="font-family:'ArialMT', 'Arial', sans-serif;font-size:12px;fill:rgb(0,163,110);">Z</text>
        <text x="359.221px" y="0px" style="font-family:'Arial-BoldMT', 'Arial', sans-serif;font-weight:700;font-size:12px;">+ MINIMUM na ZNAKOW<tspan x="497.549px 506.215px " y="0px 0px ">AN</tspan>IE)</text>
    </g>
    <g transform="matrix(1.72649,0,0,1.83993,1.22406,255.584)">
        <text x="0px" y="0px" style="font-family:'Arial-Black', 'Arial', sans-serif;font-weight:900;font-size:12px;fill:rgb(197,43,67);">CAŁOŚĆ</text>
        <text x="58.002px" y="0px" style="font-family:'Arial-BoldMT', 'Arial', sans-serif;font-weight:700;font-size:12px;">= MAX(</text>
        <text x="99.006px" y="0px" style="font-family:'ArialMT', 'Arial', sans-serif;font-size:12px;fill:rgb(197,43,67);">C</text>
        <text x="111.006px" y="0px" style="font-family:'Arial-BoldMT', 'Arial', sans-serif;font-weight:700;font-size:12px;">•</text>
        <text x="118.541px" y="0px" style="font-family:'Arial-BoldMT', 'Arial', sans-serif;font-weight:700;font-size:12px;">MARŻA<tspan x="161.42px 164.754px " y="0px 0px "> n</tspan>a CAŁOŚĆ,</text>
        <text x="239.426px" y="0px" style="font-family:'ArialMT', 'Arial', sans-serif;font-size:12px;fill:rgb(197,43,67);">C</text>
        <text x="251.426px" y="0px" style="font-family:'Arial-BoldMT', 'Arial', sans-serif;font-weight:700;font-size:12px;">+ MINIMUM na CAŁOŚĆ)</text>
    </g>
    <g transform="matrix(1.72649,0,0,1.83993,0.627202,289.364)">
        <text x="0px" y="0px" style="font-family:'Arial-Black', 'Arial', sans-serif;font-weight:900;font-size:12px;fill:rgb(53,152,255);">TRANSPOR<tspan x="73.887px " y="0px ">T</tspan></text>
        <text x="85.887px" y="0px" style="font-family:'Arial-BoldMT', 'Arial', sans-serif;font-weight:700;font-size:12px;">= JEŚLI(</text>
        <text x="133.57px" y="0px" style="font-family:'ArialMT', 'Arial', sans-serif;font-size:12px;fill:rgb(255,148,28);">NC</text>
        <text x="154.236px" y="0px" style="font-family:'Arial-BoldMT', 'Arial', sans-serif;font-weight:700;font-size:12px;">&gt;</text>
        <text x="164.578px" y="0px" style="font-family:'Arial-BoldMT', 'Arial', sans-serif;font-weight:700;font-size:12px;">PRÓG TRANSPORTU,</text>
        <text x="293.25px" y="0px" style="font-family:'Arial-BoldMT', 'Arial', sans-serif;font-weight:700;font-size:12px;fill:rgb(124,124,124);">0</text>
        <text x="299.924px" y="0px" style="font-family:'Arial-BoldMT', 'Arial', sans-serif;font-weight:700;font-size:12px;">, CENA<tspan x="340.148px 343.482px " y="0px 0px "> T</tspan>RANSPORTU</text>
        <text x="426.814px" y="0px" style="font-family:'Arial-BoldMT', 'Arial', sans-serif;font-weight:700;font-size:12px;">)</text>
    </g>
    <g transform="matrix(1.72649,0,0,1.83993,-0.981268,349.73)">
        <text x="0px" y="0px" style="font-family:'Arial-Black', 'Arial', sans-serif;font-weight:900;font-size:12px;fill:rgb(144,144,144);">CEN<tspan x="27.879px 37.213px " y="0px 0px ">A </tspan>DLA N<tspan x="81.768px 91.102px " y="0px 0px ">AK</tspan>ŁADU</text>
        <text x="141.1px" y="0px" style="font-family:'Arial-BoldMT', 'Arial', sans-serif;font-weight:700;font-size:12px;">= (</text>
        <text x="155.438px" y="0px" style="font-family:'Arial-Black', 'Arial', sans-serif;font-weight:900;font-size:12px;fill:rgb(197,43,67);">CAŁOŚĆ</text>
        <text x="213.439px" y="0px" style="font-family:'Arial-BoldMT', 'Arial', sans-serif;font-weight:700;font-size:12px;">+</text>
        <text x="223.781px" y="0px" style="font-family:'Arial-Black', 'Arial', sans-serif;font-weight:900;font-size:12px;fill:rgb(53,152,255);">TRANSPOR<tspan x="297.668px " y="0px ">T</tspan></text>
        <text x="306.334px" y="0px" style="font-family:'Arial-Black', 'Arial', sans-serif;font-weight:900;font-size:12px;">) /</text>
        <text x="322.342px" y="0px" style="font-family:'ArialMT', 'Arial', sans-serif;font-size:12px;fill:rgb(255,148,28);">NAKŁAD</text>
    </g>
    <g transform="matrix(1.72649,0,0,1.83993,-0.414763,135.022)">
        <text x="0px" y="0px" style="font-family:'ArialMT', 'Arial', sans-serif;font-size:12px;fill:rgb(0,163,110);">Z</text>
        <text x="10.664px" y="0px" style="font-family:'Arial-BoldMT', 'Arial', sans-serif;font-weight:700;font-size:12px;">= JEŚLI(NAKŁAD = 1,</text>
        <text x="139.359px" y="0px" style="font-family:'ArialMT', 'Arial', sans-serif;font-size:12px;fill:rgb(0,163,110);">CZOPN</text>
        <text x="184.693px" y="0px" style="font-family:'Arial-BoldMT', 'Arial', sans-serif;font-weight:700;font-size:12px;">+ PRZYGOT<tspan x="252.82px 262.154px 272.818px 281.484px " y="0px 0px 0px 0px ">OWAL</tspan>NIA,</text>
        <text x="319.482px" y="0px" style="font-family:'ArialMT', 'Arial', sans-serif;font-size:12px;fill:rgb(0,163,110);">CZOPN</text>
        <text x="364.816px" y="0px" style="font-family:'Arial-BoldMT', 'Arial', sans-serif;font-weight:700;font-size:12px;">• NAKŁAD + PRZYGOT<tspan x="494.473px 503.807px 514.471px 523.137px " y="0px 0px 0px 0px ">OWAL</tspan>NIA</text>
        <text x="551.133px" y="0px" style="font-family:'Arial-BoldMT', 'Arial', sans-serif;font-weight:700;font-size:12px;">)</text>
    </g>
    <g transform="matrix(1.72649,0,0,1.83993,-343.073,-147.199)">
        <text x="298.733px" y="202.855px" style="font-family:'ArialMT', 'Arial', sans-serif;font-size:12px;fill:rgb(197,43,67);">C</text>
        <text x="310.733px" y="202.855px" style="font-family:'Arial-BoldMT', 'Arial', sans-serif;font-weight:700;font-size:12px;">=</text>
        <text x="321.075px" y="202.855px" style="font-family:'Arial-Black', 'Arial', sans-serif;font-weight:900;font-size:12px;fill:rgb(255,148,28);">CEN<tspan x="348.954px 358.288px " y="202.855px 202.855px ">A </tspan>PR<tspan x="380.085px 390.081px " y="202.855px 202.855px ">OD</tspan>UKTU</text>
        <text x="441.403px" y="202.855px" style="font-family:'Arial-BoldMT', 'Arial', sans-serif;font-weight:700;font-size:12px;">+</text>
        <text x="451.745px" y="202.855px" style="font-family:'Arial-Black', 'Arial', sans-serif;font-weight:900;font-size:12px;fill:rgb(0,163,110);">CEN<tspan x="479.624px 488.958px " y="202.855px 202.855px ">A </tspan>ZN<tspan x="511.505px 520.839px 530.425px 540.216px 552.216px " y="202.855px 202.855px 202.855px 202.855px 202.855px ">AKOWA</tspan>NIA</text>
    </g>
</svg>
