<?xml version="1.0" encoding="UTF-8" standalone="no"?>
<!DOCTYPE svg PUBLIC "-//W3C//DTD SVG 1.1//EN" "http://www.w3.org/Graphics/SVG/1.1/DTD/svg11.dtd">
<svg width="100%" height="100%" viewBox="0 0 40 40" version="1.1" xmlns="http://www.w3.org/2000/svg" xmlns:xlink="http://www.w3.org/1999/xlink" xml:space="preserve" xmlns:serif="http://www.serif.com/" style="fill-rule:evenodd;clip-rule:evenodd;stroke-linejoin:round;stroke-miterlimit:2;">
    <path d="M20,31.667C19.611,31.667 19.285,31.535 19.021,31.271C18.757,31.007 18.625,30.681 18.625,30.292L18.625,21.375L9.708,21.375C9.319,21.375 8.993,21.243 8.729,20.979C8.465,20.715 8.333,20.389 8.333,20C8.333,19.611 8.465,19.285 8.729,19.021C8.993,18.757 9.319,18.625 9.708,18.625L18.625,18.625L18.625,9.708C18.625,9.319 18.757,8.993 19.021,8.729C19.285,8.465 19.611,8.333 20,8.333C20.389,8.333 20.715,8.465 20.979,8.729C21.243,8.993 21.375,9.319 21.375,9.708L21.375,18.625L30.292,18.625C30.681,18.625 31.007,18.757 31.271,19.021C31.535,19.285 31.667,19.611 31.667,20C31.667,20.389 31.535,20.715 31.271,20.979C31.007,21.243 30.681,21.375 30.292,21.375L21.375,21.375L21.375,30.292C21.375,30.681 21.243,31.007 20.979,31.271C20.715,31.535 20.389,31.667 20,31.667Z" style="fill:white;fill-rule:nonzero;"/>
</svg>
