<?xml version="1.0" encoding="UTF-8" standalone="no"?>
<!DOCTYPE svg PUBLIC "-//W3C//DTD SVG 1.1//EN" "http://www.w3.org/Graphics/SVG/1.1/DTD/svg11.dtd">
<svg width="100%" height="100%" viewBox="0 0 40 40" version="1.1" xmlns="http://www.w3.org/2000/svg" xmlns:xlink="http://www.w3.org/1999/xlink" xml:space="preserve" xmlns:serif="http://www.serif.com/" style="fill-rule:evenodd;clip-rule:evenodd;stroke-linejoin:round;stroke-miterlimit:2;">
    <path d="M19.042,32.333C18.792,32.083 18.66,31.757 18.646,31.354C18.632,30.951 18.75,30.625 19,30.375L28,21.375L8.042,21.375C7.653,21.375 7.326,21.243 7.062,20.979C6.799,20.715 6.667,20.389 6.667,20C6.667,19.611 6.799,19.285 7.062,19.021C7.326,18.757 7.653,18.625 8.042,18.625L28,18.625L19,9.625C18.75,9.375 18.632,9.042 18.646,8.625C18.66,8.208 18.792,7.875 19.042,7.625C19.292,7.375 19.611,7.25 20,7.25C20.389,7.25 20.708,7.375 20.958,7.625L32.375,19.042C32.514,19.181 32.611,19.326 32.667,19.479C32.722,19.632 32.75,19.805 32.75,20C32.75,20.167 32.722,20.333 32.667,20.5C32.611,20.667 32.514,20.819 32.375,20.958L20.958,32.375C20.708,32.625 20.389,32.743 20,32.729C19.611,32.715 19.292,32.583 19.042,32.333Z" style="fill:white;fill-rule:nonzero;"/>
</svg>
