<?xml version="1.0" encoding="UTF-8" standalone="no"?>
<!DOCTYPE svg PUBLIC "-//W3C//DTD SVG 1.1//EN" "http://www.w3.org/Graphics/SVG/1.1/DTD/svg11.dtd">
<svg width="100%" height="100%" viewBox="0 0 40 40" version="1.1" xmlns="http://www.w3.org/2000/svg" xmlns:xlink="http://www.w3.org/1999/xlink" xml:space="preserve" xmlns:serif="http://www.serif.com/" style="fill-rule:evenodd;clip-rule:evenodd;stroke-linejoin:round;stroke-miterlimit:2;">
    <path d="M20,21.958L11.458,30.5C11.181,30.778 10.854,30.917 10.479,30.917C10.104,30.917 9.778,30.778 9.5,30.5C9.222,30.222 9.083,29.896 9.083,29.521C9.083,29.146 9.222,28.819 9.5,28.542L18.042,20L9.5,11.458C9.222,11.181 9.083,10.854 9.083,10.479C9.083,10.104 9.222,9.778 9.5,9.5C9.778,9.222 10.104,9.083 10.479,9.083C10.854,9.083 11.181,9.222 11.458,9.5L20,18.042L28.542,9.5C28.819,9.222 29.146,9.083 29.521,9.083C29.896,9.083 30.222,9.222 30.5,9.5C30.778,9.778 30.917,10.104 30.917,10.479C30.917,10.854 30.778,11.181 30.5,11.458L21.958,20L30.5,28.542C30.778,28.819 30.917,29.146 30.917,29.521C30.917,29.896 30.778,30.222 30.5,30.5C30.222,30.778 29.896,30.917 29.521,30.917C29.146,30.917 28.819,30.778 28.542,30.5L20,21.958Z" style="fill:white;fill-rule:nonzero;"/>
</svg>
