<?xml version="1.0" encoding="UTF-8" standalone="no"?>
<!DOCTYPE svg PUBLIC "-//W3C//DTD SVG 1.1//EN" "http://www.w3.org/Graphics/SVG/1.1/DTD/svg11.dtd">
<svg width="100%" height="100%" viewBox="0 0 40 40" version="1.1" xmlns="http://www.w3.org/2000/svg" xmlns:xlink="http://www.w3.org/1999/xlink" xml:space="preserve" xmlns:serif="http://www.serif.com/" style="fill-rule:evenodd;clip-rule:evenodd;stroke-linejoin:round;stroke-miterlimit:2;">
    <path d="M20,36.667C17.722,36.667 15.569,36.229 13.542,35.354C11.514,34.479 9.743,33.285 8.229,31.771C6.715,30.257 5.521,28.486 4.646,26.458C3.771,24.431 3.333,22.278 3.333,20C3.333,17.667 3.778,15.486 4.667,13.458C5.556,11.431 6.771,9.667 8.312,8.167C9.854,6.667 11.66,5.486 13.729,4.625C15.798,3.764 18.014,3.333 20.375,3.333C22.57,3.333 24.653,3.708 26.625,4.458C28.597,5.208 30.326,6.243 31.812,7.563C33.299,8.882 34.479,10.445 35.354,12.25C36.229,14.055 36.667,16.028 36.667,18.167C36.667,21.222 35.757,23.618 33.938,25.354C32.118,27.09 29.791,27.958 26.958,27.958L23.833,27.958C23.416,27.958 23.069,28.111 22.792,28.417C22.514,28.722 22.375,29.056 22.375,29.417C22.375,30.028 22.583,30.611 23,31.167C23.417,31.722 23.625,32.375 23.625,33.125C23.625,34.292 23.299,35.174 22.646,35.771C21.993,36.368 21.111,36.667 20,36.667ZM10.458,21.292C11.069,21.292 11.597,21.07 12.042,20.625C12.486,20.18 12.708,19.653 12.708,19.042C12.708,18.431 12.486,17.91 12.042,17.479C11.597,17.048 11.069,16.833 10.458,16.833C9.847,16.833 9.327,17.048 8.896,17.479C8.465,17.91 8.25,18.431 8.25,19.042C8.25,19.653 8.465,20.18 8.896,20.625C9.327,21.07 9.847,21.292 10.458,21.292ZM15.625,14.333C16.236,14.333 16.764,14.118 17.208,13.688C17.653,13.257 17.875,12.736 17.875,12.125C17.875,11.514 17.653,10.986 17.208,10.542C16.764,10.097 16.236,9.875 15.625,9.875C15.014,9.875 14.493,10.097 14.062,10.542C13.632,10.986 13.417,11.514 13.417,12.125C13.417,12.736 13.632,13.257 14.062,13.688C14.493,14.118 15.014,14.333 15.625,14.333ZM24.375,14.333C24.986,14.333 25.507,14.118 25.938,13.688C26.368,13.257 26.583,12.736 26.583,12.125C26.583,11.514 26.368,10.986 25.938,10.542C25.507,10.097 24.986,9.875 24.375,9.875C23.764,9.875 23.236,10.097 22.792,10.542C22.347,10.986 22.125,11.514 22.125,12.125C22.125,12.736 22.347,13.257 22.792,13.688C23.236,14.118 23.764,14.333 24.375,14.333ZM29.667,21.292C30.278,21.292 30.798,21.07 31.229,20.625C31.66,20.18 31.875,19.653 31.875,19.042C31.875,18.431 31.66,17.91 31.229,17.479C30.798,17.048 30.278,16.833 29.667,16.833C29.056,16.833 28.535,17.048 28.104,17.479C27.673,17.91 27.458,18.431 27.458,19.042C27.458,19.653 27.673,20.18 28.104,20.625C28.535,21.07 29.056,21.292 29.667,21.292ZM20,33.875C20.278,33.875 20.486,33.813 20.625,33.688C20.764,33.563 20.833,33.375 20.833,33.125C20.833,32.736 20.632,32.341 20.229,31.938C19.826,31.535 19.625,30.778 19.625,29.667C19.625,28.417 20.035,27.354 20.854,26.479C21.673,25.604 22.708,25.167 23.958,25.167L26.958,25.167C28.958,25.167 30.611,24.577 31.917,23.396C33.222,22.215 33.875,20.472 33.875,18.167C33.875,14.611 32.521,11.715 29.812,9.479C27.104,7.243 23.958,6.125 20.375,6.125C16.403,6.125 13.035,7.465 10.271,10.146C7.507,12.827 6.125,16.111 6.125,20C6.125,23.833 7.479,27.104 10.188,29.812C12.896,32.521 16.167,33.875 20,33.875Z" style="fill:white;fill-rule:nonzero;"/>
</svg>
