<?xml version="1.0" encoding="UTF-8" standalone="no"?>
<!DOCTYPE svg PUBLIC "-//W3C//DTD SVG 1.1//EN" "http://www.w3.org/Graphics/SVG/1.1/DTD/svg11.dtd">
<svg width="100%" height="100%" viewBox="0 0 40 40" version="1.1" xmlns="http://www.w3.org/2000/svg" xmlns:xlink="http://www.w3.org/1999/xlink" xml:space="preserve" xmlns:serif="http://www.serif.com/" style="fill-rule:evenodd;clip-rule:evenodd;stroke-linejoin:round;stroke-miterlimit:2;">
    <path d="M11.125,35C10.375,35 9.729,34.722 9.188,34.167C8.646,33.611 8.375,32.958 8.375,32.208L8.375,9.167L8.042,9.167C7.653,9.167 7.326,9.035 7.062,8.771C6.799,8.507 6.667,8.181 6.667,7.792C6.667,7.375 6.799,7.035 7.062,6.771C7.326,6.507 7.653,6.375 8.042,6.375L14.667,6.375C14.667,5.986 14.799,5.66 15.062,5.396C15.326,5.132 15.653,5 16.042,5L23.958,5C24.347,5 24.674,5.132 24.938,5.396C25.201,5.66 25.333,5.986 25.333,6.375L31.958,6.375C32.347,6.375 32.674,6.514 32.938,6.792C33.201,7.069 33.333,7.403 33.333,7.792C33.333,8.181 33.201,8.507 32.938,8.771C32.674,9.035 32.347,9.167 31.958,9.167L31.625,9.167L31.625,32.208C31.625,32.958 31.354,33.611 30.812,34.167C30.271,34.722 29.625,35 28.875,35L11.125,35ZM11.125,9.167L11.125,32.208L28.875,32.208L28.875,9.167L11.125,9.167ZM15.208,27.333C15.208,27.722 15.34,28.049 15.604,28.312C15.868,28.576 16.194,28.708 16.583,28.708C16.972,28.708 17.299,28.576 17.562,28.312C17.826,28.049 17.958,27.722 17.958,27.333L17.958,14.042C17.958,13.625 17.826,13.285 17.562,13.021C17.299,12.757 16.972,12.625 16.583,12.625C16.194,12.625 15.868,12.757 15.604,13.021C15.34,13.285 15.208,13.625 15.208,14.042L15.208,27.333ZM22.042,27.333C22.042,27.722 22.174,28.049 22.438,28.312C22.701,28.576 23.028,28.708 23.417,28.708C23.806,28.708 24.132,28.576 24.396,28.312C24.66,28.049 24.792,27.722 24.792,27.333L24.792,14.042C24.792,13.625 24.66,13.285 24.396,13.021C24.132,12.757 23.806,12.625 23.417,12.625C23.028,12.625 22.701,12.757 22.438,13.021C22.174,13.285 22.042,13.625 22.042,14.042L22.042,27.333ZM11.125,9.167L11.125,32.208L11.125,9.167Z" style="fill:white;fill-rule:nonzero;"/>
</svg>
