<?xml version="1.0" encoding="UTF-8" standalone="no"?>
<!DOCTYPE svg PUBLIC "-//W3C//DTD SVG 1.1//EN" "http://www.w3.org/Graphics/SVG/1.1/DTD/svg11.dtd">
<svg width="100%" height="100%" viewBox="0 0 40 40" version="1.1" xmlns="http://www.w3.org/2000/svg" xmlns:xlink="http://www.w3.org/1999/xlink" xml:space="preserve" xmlns:serif="http://www.serif.com/" style="fill-rule:evenodd;clip-rule:evenodd;stroke-linejoin:round;stroke-miterlimit:2;">
    <path d="M11.292,28.417L28.75,28.417C29.055,28.417 29.271,28.292 29.396,28.042C29.521,27.792 29.486,27.542 29.292,27.292L24.542,20.917C24.375,20.75 24.181,20.667 23.958,20.667C23.736,20.667 23.556,20.75 23.417,20.917L18.625,27.167L15.375,22.708C15.208,22.514 15.014,22.417 14.792,22.417C14.569,22.417 14.389,22.514 14.25,22.708L10.75,27.292C10.583,27.542 10.563,27.792 10.688,28.042C10.813,28.292 11.014,28.417 11.292,28.417ZM7.792,35C7.042,35 6.389,34.722 5.833,34.167C5.278,33.611 5,32.958 5,32.208L5,7.792C5,7.042 5.278,6.389 5.833,5.833C6.389,5.278 7.042,5 7.792,5L32.208,5C32.958,5 33.611,5.278 34.167,5.833C34.722,6.389 35,7.042 35,7.792L35,32.208C35,32.958 34.722,33.611 34.167,34.167C33.611,34.722 32.958,35 32.208,35L7.792,35ZM7.792,32.208L32.208,32.208L32.208,7.792L7.792,7.792L7.792,32.208ZM7.792,7.792L7.792,32.208L7.792,7.792Z" style="fill:white;fill-rule:nonzero;"/>
</svg>
