<?xml version="1.0" encoding="UTF-8" standalone="no"?>
<!DOCTYPE svg PUBLIC "-//W3C//DTD SVG 1.1//EN" "http://www.w3.org/Graphics/SVG/1.1/DTD/svg11.dtd">
<svg width="100%" height="100%" viewBox="0 0 40 40" version="1.1" xmlns="http://www.w3.org/2000/svg" xmlns:xlink="http://www.w3.org/1999/xlink" xml:space="preserve" xmlns:serif="http://www.serif.com/" style="fill-rule:evenodd;clip-rule:evenodd;stroke-linejoin:round;stroke-miterlimit:2;">
    <path d="M6.375,30C5.986,30 5.66,29.868 5.396,29.604C5.132,29.34 5,29.014 5,28.625C5,28.208 5.132,27.868 5.396,27.604C5.66,27.34 5.986,27.208 6.375,27.208L33.625,27.208C34.014,27.208 34.34,27.347 34.604,27.625C34.868,27.903 35,28.236 35,28.625C35,29.014 34.868,29.34 34.604,29.604C34.34,29.868 34.014,30 33.625,30L6.375,30ZM6.375,21.375C5.986,21.375 5.66,21.243 5.396,20.979C5.132,20.715 5,20.389 5,20C5,19.611 5.132,19.285 5.396,19.021C5.66,18.757 5.986,18.625 6.375,18.625L33.625,18.625C34.014,18.625 34.34,18.757 34.604,19.021C34.868,19.285 35,19.611 35,20C35,20.389 34.868,20.715 34.604,20.979C34.34,21.243 34.014,21.375 33.625,21.375L6.375,21.375ZM6.375,12.792C5.986,12.792 5.66,12.653 5.396,12.375C5.132,12.097 5,11.764 5,11.375C5,10.986 5.132,10.66 5.396,10.396C5.66,10.132 5.986,10 6.375,10L33.625,10C34.014,10 34.34,10.132 34.604,10.396C34.868,10.66 35,10.986 35,11.375C35,11.792 34.868,12.132 34.604,12.396C34.34,12.66 34.014,12.792 33.625,12.792L6.375,12.792Z" style="fill:white;fill-rule:nonzero;"/>
</svg>
