<?xml version="1.0" encoding="UTF-8" standalone="no"?>
<!DOCTYPE svg PUBLIC "-//W3C//DTD SVG 1.1//EN" "http://www.w3.org/Graphics/SVG/1.1/DTD/svg11.dtd">
<svg width="100%" height="100%" viewBox="0 0 40 40" version="1.1" xmlns="http://www.w3.org/2000/svg" xmlns:xlink="http://www.w3.org/1999/xlink" xml:space="preserve" xmlns:serif="http://www.serif.com/" style="fill-rule:evenodd;clip-rule:evenodd;stroke-linejoin:round;stroke-miterlimit:2;">
    <path d="M14.708,29.708L25.292,29.708C25.709,29.708 26.049,29.576 26.312,29.312C26.576,29.049 26.708,28.722 26.708,28.333C26.708,27.944 26.576,27.618 26.312,27.354C26.049,27.09 25.709,26.958 25.292,26.958L14.708,26.958C14.291,26.958 13.951,27.09 13.688,27.354C13.424,27.618 13.292,27.944 13.292,28.333C13.292,28.722 13.424,29.049 13.688,29.312C13.951,29.576 14.291,29.708 14.708,29.708ZM14.708,22.792L25.292,22.792C25.709,22.792 26.049,22.653 26.312,22.375C26.576,22.097 26.708,21.764 26.708,21.375C26.708,20.986 26.576,20.66 26.312,20.396C26.049,20.132 25.709,20 25.292,20L14.708,20C14.291,20 13.951,20.132 13.688,20.396C13.424,20.66 13.292,20.986 13.292,21.375C13.292,21.792 13.424,22.132 13.688,22.396C13.951,22.66 14.291,22.792 14.708,22.792ZM9.458,36.667C8.708,36.667 8.055,36.389 7.5,35.833C6.945,35.278 6.667,34.625 6.667,33.875L6.667,6.125C6.667,5.375 6.945,4.722 7.5,4.167C8.055,3.611 8.708,3.333 9.458,3.333L22.75,3.333C23.139,3.333 23.507,3.41 23.854,3.563C24.201,3.716 24.5,3.917 24.75,4.167L32.5,11.917C32.75,12.167 32.951,12.466 33.104,12.813C33.257,13.16 33.333,13.528 33.333,13.917L33.333,33.875C33.333,34.625 33.055,35.278 32.5,35.833C31.945,36.389 31.292,36.667 30.542,36.667L9.458,36.667ZM22.542,12.667L22.542,6.125L9.458,6.125L9.458,33.875L30.542,33.875L30.542,14.042L23.917,14.042C23.528,14.042 23.201,13.91 22.938,13.646C22.674,13.382 22.542,13.056 22.542,12.667ZM9.458,6.125L9.458,14.042L9.458,6.125L9.458,33.875L9.458,6.125Z" style="fill:white;fill-rule:nonzero;"/>
</svg>
