<?xml version="1.0" encoding="UTF-8" standalone="no"?>
<!DOCTYPE svg PUBLIC "-//W3C//DTD SVG 1.1//EN" "http://www.w3.org/Graphics/SVG/1.1/DTD/svg11.dtd">
<svg width="100%" height="100%" viewBox="0 0 40 40" version="1.1" xmlns="http://www.w3.org/2000/svg" xmlns:xlink="http://www.w3.org/1999/xlink" xml:space="preserve" xmlns:serif="http://www.serif.com/" style="fill-rule:evenodd;clip-rule:evenodd;stroke-linejoin:round;stroke-miterlimit:2;">
    <path d="M12.208,17.792C10.681,17.792 9.375,17.25 8.292,16.167C7.209,15.084 6.667,13.764 6.667,12.208C6.667,10.681 7.209,9.375 8.292,8.292C9.375,7.209 10.681,6.667 12.208,6.667C13.764,6.667 15.084,7.209 16.167,8.292C17.25,9.375 17.792,10.681 17.792,12.208C17.792,13.764 17.25,15.084 16.167,16.167C15.084,17.25 13.764,17.792 12.208,17.792ZM12.208,15C12.986,15 13.646,14.729 14.188,14.188C14.729,13.646 15,12.986 15,12.208C15,11.458 14.729,10.812 14.188,10.271C13.646,9.729 12.986,9.458 12.208,9.458C11.458,9.458 10.812,9.729 10.271,10.271C9.729,10.812 9.458,11.458 9.458,12.208C9.458,12.986 9.729,13.646 10.271,14.188C10.812,14.729 11.458,15 12.208,15ZM27.792,33.333C26.236,33.333 24.916,32.791 23.833,31.708C22.75,30.625 22.208,29.319 22.208,27.792C22.208,26.236 22.75,24.916 23.833,23.833C24.916,22.75 26.236,22.208 27.792,22.208C29.319,22.208 30.625,22.75 31.708,23.833C32.791,24.916 33.333,26.236 33.333,27.792C33.333,29.319 32.791,30.625 31.708,31.708C30.625,32.791 29.319,33.333 27.792,33.333ZM27.792,30.542C28.542,30.542 29.188,30.271 29.729,29.729C30.271,29.188 30.542,28.542 30.542,27.792C30.542,27.014 30.271,26.354 29.729,25.812C29.188,25.271 28.542,25 27.792,25C27.014,25 26.354,25.271 25.812,25.812C25.271,26.354 25,27.014 25,27.792C25,28.542 25.271,29.188 25.812,29.729C26.354,30.271 27.014,30.542 27.792,30.542ZM7.625,32.375C7.375,32.097 7.25,31.771 7.25,31.396C7.25,31.021 7.375,30.694 7.625,30.417L30.417,7.625C30.694,7.375 31.021,7.25 31.396,7.25C31.771,7.25 32.097,7.375 32.375,7.625C32.625,7.903 32.75,8.229 32.75,8.604C32.75,8.979 32.625,9.306 32.375,9.583L9.583,32.375C9.306,32.625 8.979,32.75 8.604,32.75C8.229,32.75 7.903,32.625 7.625,32.375Z" style="fill:white;fill-rule:nonzero;"/>
</svg>
