<?xml version="1.0" encoding="UTF-8" standalone="no"?>
<!DOCTYPE svg PUBLIC "-//W3C//DTD SVG 1.1//EN" "http://www.w3.org/Graphics/SVG/1.1/DTD/svg11.dtd">
<svg width="100%" height="100%" viewBox="0 0 40 40" version="1.1" xmlns="http://www.w3.org/2000/svg" xmlns:xlink="http://www.w3.org/1999/xlink" xml:space="preserve" xmlns:serif="http://www.serif.com/" style="fill-rule:evenodd;clip-rule:evenodd;stroke-linejoin:round;stroke-miterlimit:2;">
    <path d="M22.875,36.667L17.125,36.667C16.792,36.667 16.493,36.556 16.229,36.333C15.965,36.111 15.805,35.833 15.75,35.5L15.125,31.375C14.653,31.208 14.174,30.979 13.688,30.688C13.201,30.396 12.75,30.097 12.333,29.792L8.542,31.5C8.209,31.639 7.875,31.653 7.542,31.542C7.209,31.431 6.959,31.222 6.792,30.917L3.917,25.875C3.722,25.57 3.667,25.243 3.75,24.896C3.833,24.549 4.014,24.264 4.292,24.042L7.75,21.5C7.695,21.278 7.66,21.028 7.646,20.75C7.632,20.472 7.625,20.222 7.625,20C7.625,19.778 7.632,19.528 7.646,19.25C7.66,18.972 7.695,18.722 7.75,18.5L4.292,15.958C4.014,15.736 3.833,15.451 3.75,15.104C3.667,14.757 3.722,14.43 3.917,14.125L6.792,9.083C6.959,8.75 7.209,8.535 7.542,8.438C7.875,8.341 8.209,8.361 8.542,8.5L12.333,10.208C12.75,9.903 13.208,9.604 13.708,9.312C14.208,9.021 14.68,8.792 15.125,8.625L15.75,4.5C15.805,4.167 15.965,3.889 16.229,3.667C16.493,3.444 16.792,3.333 17.125,3.333L22.875,3.333C23.208,3.333 23.507,3.444 23.771,3.667C24.035,3.889 24.195,4.167 24.25,4.5L24.875,8.625C25.347,8.792 25.833,9.014 26.333,9.292C26.833,9.569 27.278,9.875 27.667,10.208L31.458,8.5C31.791,8.361 32.125,8.347 32.458,8.458C32.791,8.569 33.041,8.778 33.208,9.083L36.083,14.125C36.278,14.43 36.333,14.757 36.25,15.104C36.167,15.451 35.986,15.736 35.708,15.958L32.25,18.417C32.305,18.667 32.34,18.931 32.354,19.208C32.368,19.486 32.375,19.75 32.375,20C32.375,20.25 32.368,20.507 32.354,20.771C32.34,21.035 32.305,21.292 32.25,21.542L35.667,24.042C35.944,24.264 36.125,24.549 36.208,24.896C36.291,25.243 36.25,25.57 36.083,25.875L33.208,30.875C33.014,31.208 32.75,31.431 32.417,31.542C32.084,31.653 31.75,31.639 31.417,31.5L27.667,29.792C27.25,30.097 26.799,30.403 26.312,30.708C25.826,31.014 25.347,31.236 24.875,31.375L24.25,35.5C24.195,35.833 24.035,36.111 23.771,36.333C23.507,36.556 23.208,36.667 22.875,36.667ZM20.042,25.542C21.569,25.542 22.875,25 23.958,23.917C25.041,22.834 25.583,21.528 25.583,20C25.583,18.472 25.041,17.166 23.958,16.083C22.875,15 21.569,14.458 20.042,14.458C18.486,14.458 17.166,15 16.083,16.083C15,17.166 14.458,18.472 14.458,20C14.458,21.528 15,22.834 16.083,23.917C17.166,25 18.486,25.542 20.042,25.542ZM20.042,22.792C19.264,22.792 18.604,22.521 18.062,21.979C17.521,21.438 17.25,20.778 17.25,20C17.25,19.222 17.521,18.562 18.062,18.021C18.604,17.479 19.264,17.208 20.042,17.208C20.792,17.208 21.438,17.479 21.979,18.021C22.521,18.562 22.792,19.222 22.792,20C22.792,20.778 22.521,21.438 21.979,21.979C21.438,22.521 20.792,22.792 20.042,22.792ZM18.208,33.875L21.75,33.875L22.333,29.292C23.25,29.069 24.104,28.729 24.896,28.271C25.687,27.812 26.403,27.264 27.042,26.625L31.375,28.458L33,25.542L29.208,22.708C29.319,22.264 29.41,21.82 29.479,21.375C29.548,20.93 29.583,20.472 29.583,20C29.583,19.528 29.555,19.07 29.5,18.625C29.445,18.18 29.347,17.736 29.208,17.292L33,14.458L31.375,11.542L27.042,13.375C26.403,12.68 25.694,12.104 24.917,11.646C24.139,11.187 23.278,10.875 22.333,10.708L21.792,6.125L18.25,6.125L17.667,10.708C16.75,10.903 15.896,11.229 15.104,11.688C14.313,12.146 13.597,12.708 12.958,13.375L8.625,11.542L7,14.458L10.792,17.292C10.681,17.736 10.59,18.18 10.521,18.625C10.452,19.07 10.417,19.528 10.417,20C10.417,20.472 10.452,20.93 10.521,21.375C10.59,21.82 10.681,22.264 10.792,22.708L7,25.542L8.625,28.458L12.958,26.625C13.597,27.264 14.313,27.812 15.104,28.271C15.896,28.729 16.75,29.069 17.667,29.292L18.208,33.875Z" style="fill:white;fill-rule:nonzero;"/>
</svg>
