<?xml version="1.0" encoding="UTF-8" standalone="no"?>
<!DOCTYPE svg PUBLIC "-//W3C//DTD SVG 1.1//EN" "http://www.w3.org/Graphics/SVG/1.1/DTD/svg11.dtd">
<svg width="100%" height="100%" viewBox="0 0 40 40" version="1.1" xmlns="http://www.w3.org/2000/svg" xmlns:xlink="http://www.w3.org/1999/xlink" xml:space="preserve" xmlns:serif="http://www.serif.com/" style="fill-rule:evenodd;clip-rule:evenodd;stroke-linejoin:round;stroke-miterlimit:2;">
    <path d="M26.417,22.417L24.375,20.375C24.958,18.625 24.59,17.125 23.271,15.875C21.952,14.625 20.459,14.264 18.792,14.792L16.75,12.75C17.222,12.472 17.736,12.271 18.292,12.146C18.847,12.021 19.417,11.958 20,11.958C22,11.958 23.701,12.66 25.104,14.063C26.507,15.466 27.208,17.167 27.208,19.167C27.208,19.75 27.139,20.327 27,20.896C26.861,21.465 26.667,21.972 26.417,22.417ZM31.792,27.75L29.875,25.875C31.125,24.93 32.222,23.889 33.167,22.75C34.111,21.611 34.847,20.417 35.375,19.167C33.986,16.167 31.931,13.799 29.208,12.063C26.486,10.326 23.514,9.458 20.292,9.458C19.236,9.458 18.173,9.548 17.104,9.729C16.035,9.91 15.139,10.139 14.417,10.417L12.292,8.25C13.319,7.805 14.534,7.43 15.937,7.125C17.34,6.82 18.736,6.667 20.125,6.667C23.958,6.667 27.458,7.702 30.625,9.771C33.792,11.84 36.194,14.597 37.833,18.042C37.916,18.181 37.972,18.347 38,18.542C38.028,18.736 38.042,18.944 38.042,19.167C38.042,19.389 38.028,19.604 38,19.812C37.972,20.021 37.916,20.194 37.833,20.333C37.139,21.833 36.278,23.208 35.25,24.458C34.222,25.708 33.069,26.805 31.792,27.75ZM32.667,36.458L26.667,30.542C25.694,30.903 24.639,31.18 23.5,31.375C22.361,31.57 21.195,31.667 20,31.667C16.111,31.667 12.577,30.632 9.396,28.562C6.215,26.493 3.806,23.736 2.167,20.292C2.084,20.153 2.028,19.986 2,19.792C1.972,19.597 1.958,19.389 1.958,19.167C1.958,18.944 1.979,18.729 2.021,18.521C2.062,18.312 2.111,18.139 2.167,18C2.75,16.75 3.479,15.556 4.354,14.417C5.229,13.278 6.236,12.208 7.375,11.208L3.292,7.125C3.014,6.875 2.875,6.563 2.875,6.188C2.875,5.813 3.014,5.486 3.292,5.208C3.569,4.931 3.903,4.792 4.292,4.792C4.681,4.792 5.014,4.931 5.292,5.208L34.625,34.542C34.875,34.792 35,35.097 35,35.458C35,35.819 34.875,36.139 34.625,36.417C34.375,36.694 34.056,36.833 33.667,36.833C33.278,36.833 32.944,36.708 32.667,36.458ZM9.292,13.167C8.319,13.917 7.403,14.841 6.542,15.938C5.681,17.035 5.042,18.111 4.625,19.167C6.014,22.167 8.09,24.535 10.854,26.271C13.618,28.007 16.736,28.875 20.208,28.875C21.014,28.875 21.799,28.826 22.562,28.729C23.326,28.632 23.958,28.5 24.458,28.333L22.167,26.042C21.861,26.153 21.514,26.236 21.125,26.292C20.736,26.347 20.361,26.375 20,26.375C18,26.375 16.299,25.681 14.896,24.292C13.493,22.903 12.792,21.194 12.792,19.167C12.792,18.778 12.82,18.403 12.875,18.042C12.93,17.681 13.014,17.333 13.125,17L9.292,13.167Z" style="fill:white;fill-rule:nonzero;"/>
</svg>
