<?xml version="1.0" encoding="UTF-8" standalone="no"?>
<!DOCTYPE svg PUBLIC "-//W3C//DTD SVG 1.1//EN" "http://www.w3.org/Graphics/SVG/1.1/DTD/svg11.dtd">
<svg width="100%" height="100%" viewBox="0 0 40 40" version="1.1" xmlns="http://www.w3.org/2000/svg" xmlns:xlink="http://www.w3.org/1999/xlink" xml:space="preserve" xmlns:serif="http://www.serif.com/" style="fill-rule:evenodd;clip-rule:evenodd;stroke-linejoin:round;stroke-miterlimit:2;">
    <path d="M20,26.375C22,26.375 23.701,25.674 25.104,24.271C26.507,22.868 27.208,21.167 27.208,19.167C27.208,17.167 26.507,15.466 25.104,14.063C23.701,12.66 22,11.958 20,11.958C18,11.958 16.299,12.66 14.896,14.063C13.493,15.466 12.792,17.167 12.792,19.167C12.792,21.167 13.493,22.868 14.896,24.271C16.299,25.674 18,26.375 20,26.375ZM20,23.792C18.722,23.792 17.632,23.341 16.729,22.438C15.826,21.535 15.375,20.444 15.375,19.167C15.375,17.889 15.826,16.799 16.729,15.896C17.632,14.993 18.722,14.542 20,14.542C21.278,14.542 22.368,14.993 23.271,15.896C24.174,16.799 24.625,17.889 24.625,19.167C24.625,20.444 24.174,21.535 23.271,22.438C22.368,23.341 21.278,23.792 20,23.792ZM20,31.667C16.167,31.667 12.667,30.632 9.5,28.562C6.333,26.493 3.903,23.736 2.208,20.292C2.125,20.153 2.062,19.986 2.021,19.792C1.979,19.597 1.958,19.389 1.958,19.167C1.958,18.944 1.979,18.736 2.021,18.542C2.062,18.347 2.125,18.181 2.208,18.042C3.903,14.597 6.333,11.84 9.5,9.771C12.667,7.702 16.167,6.667 20,6.667C23.833,6.667 27.333,7.702 30.5,9.771C33.667,11.84 36.097,14.597 37.792,18.042C37.875,18.181 37.938,18.347 37.979,18.542C38.021,18.736 38.042,18.944 38.042,19.167C38.042,19.389 38.021,19.597 37.979,19.792C37.938,19.986 37.875,20.153 37.792,20.292C36.097,23.736 33.667,26.493 30.5,28.562C27.333,30.632 23.833,31.667 20,31.667ZM20,28.875C23.278,28.875 26.299,27.993 29.062,26.229C31.826,24.465 33.93,22.111 35.375,19.167C33.93,16.222 31.833,13.868 29.083,12.104C26.333,10.34 23.305,9.458 20,9.458C16.722,9.458 13.701,10.34 10.938,12.104C8.174,13.868 6.07,16.222 4.625,19.167C6.07,22.111 8.167,24.465 10.917,26.229C13.667,27.993 16.695,28.875 20,28.875Z" style="fill:white;fill-rule:nonzero;"/>
</svg>
