<svg width="100%" height="100%" viewBox="0 0 40 40" version="1.1" xmlns="http://www.w3.org/2000/svg" xmlns:xlink="http://www.w3.org/1999/xlink" xml:space="preserve" xmlns:serif="http://www.serif.com/">
    <path d="M16.458,12.583L12.75,8.917L18.042,3.625C18.319,3.347 18.632,3.146 18.979,3.021C19.326,2.896 19.667,2.833 20,2.833C20.333,2.833 20.674,2.896 21.021,3.021C21.368,3.146 21.681,3.347 21.958,3.625L27.25,8.917L23.542,12.583L20,9.042L16.458,12.583ZM8.917,27.25L3.625,21.958C3.347,21.681 3.146,21.368 3.021,21.021C2.896,20.674 2.833,20.333 2.833,20C2.833,19.667 2.896,19.326 3.021,18.979C3.146,18.632 3.347,18.319 3.625,18.042L8.917,12.75L12.583,16.458L9.042,20L12.583,23.542L8.917,27.25ZM31.083,27.25L27.417,23.542L30.958,20L27.417,16.458L31.083,12.75L36.375,18.042C36.653,18.319 36.854,18.632 36.979,18.979C37.104,19.326 37.167,19.667 37.167,20C37.167,20.333 37.104,20.674 36.979,21.021C36.854,21.368 36.653,21.681 36.375,21.958L31.083,27.25ZM20,37.167C19.667,37.167 19.326,37.104 18.979,36.979C18.632,36.854 18.319,36.653 18.042,36.375L12.75,31.083L16.458,27.417L20,30.958L23.542,27.417L27.25,31.083L21.958,36.375C21.681,36.653 21.368,36.854 21.021,36.979C20.674,37.104 20.333,37.167 20,37.167ZM20.792,22.042C20.236,22.236 19.673,22.215 19.104,21.979C18.535,21.743 18.153,21.347 17.958,20.792C17.736,20.236 17.75,19.673 18,19.104C18.25,18.535 18.653,18.153 19.208,17.958C19.764,17.736 20.32,17.75 20.875,18C21.43,18.25 21.819,18.653 22.042,19.208C22.236,19.764 22.215,20.32 21.979,20.875C21.743,21.43 21.347,21.819 20.792,22.042Z"/>
</svg>
