<svg width="100%" height="100%" viewBox="0 0 40 40" version="1.1" xmlns="http://www.w3.org/2000/svg" xmlns:xlink="http://www.w3.org/1999/xlink" xml:space="preserve" xmlns:serif="http://www.serif.com/">
    <path d="M11.292,14.958L17.292,14.958C17.597,14.958 17.854,14.854 18.062,14.646C18.271,14.437 18.375,14.18 18.375,13.875C18.375,13.542 18.271,13.271 18.062,13.062C17.854,12.854 17.597,12.75 17.292,12.75L11.292,12.75C10.959,12.75 10.688,12.854 10.479,13.062C10.271,13.271 10.167,13.542 10.167,13.875C10.167,14.18 10.271,14.437 10.479,14.646C10.688,14.854 10.959,14.958 11.292,14.958ZM23.042,28.958L29.167,28.958C29.5,28.958 29.771,28.854 29.979,28.646C30.188,28.437 30.292,28.166 30.292,27.833C30.292,27.5 30.188,27.236 29.979,27.042C29.771,26.847 29.5,26.75 29.167,26.75L23.042,26.75C22.709,26.75 22.438,26.847 22.229,27.042C22.021,27.236 21.917,27.5 21.917,27.833C21.917,28.166 22.021,28.437 22.229,28.646C22.438,28.854 22.709,28.958 23.042,28.958ZM23.042,24.583L29.167,24.583C29.5,24.583 29.771,24.479 29.979,24.271C30.188,24.062 30.292,23.791 30.292,23.458C30.292,23.153 30.188,22.896 29.979,22.688C29.771,22.479 29.5,22.375 29.167,22.375L23.042,22.375C22.709,22.375 22.438,22.479 22.229,22.688C22.021,22.896 21.917,23.153 21.917,23.458C21.917,23.791 22.021,24.062 22.229,24.271C22.438,24.479 22.709,24.583 23.042,24.583ZM14.292,30.333C14.597,30.333 14.854,30.229 15.062,30.021C15.271,29.812 15.375,29.541 15.375,29.208L15.375,26.792L17.833,26.792C18.166,26.792 18.437,26.688 18.646,26.479C18.854,26.271 18.958,26 18.958,25.667C18.958,25.334 18.854,25.063 18.646,24.854C18.437,24.646 18.166,24.542 17.833,24.542L15.375,24.542L15.375,22.125C15.375,21.792 15.271,21.521 15.062,21.312C14.854,21.104 14.597,21 14.292,21C13.959,21 13.688,21.104 13.479,21.312C13.271,21.521 13.167,21.792 13.167,22.125L13.167,24.542L10.708,24.542C10.403,24.542 10.146,24.646 9.938,24.854C9.729,25.063 9.625,25.334 9.625,25.667C9.625,26 9.729,26.271 9.938,26.479C10.146,26.688 10.403,26.792 10.708,26.792L13.167,26.792L13.167,29.208C13.167,29.541 13.271,29.812 13.479,30.021C13.688,30.229 13.959,30.333 14.292,30.333ZM22.75,17.167C23,17.389 23.271,17.5 23.562,17.5C23.854,17.5 24.111,17.389 24.333,17.167L26.042,15.458L27.75,17.208C27.972,17.431 28.229,17.535 28.521,17.521C28.812,17.507 29.069,17.389 29.292,17.167C29.514,16.944 29.625,16.68 29.625,16.375C29.625,16.07 29.514,15.806 29.292,15.583L27.625,13.875L29.333,12.125C29.556,11.903 29.66,11.653 29.646,11.375C29.632,11.097 29.514,10.833 29.292,10.583C29.069,10.361 28.805,10.25 28.5,10.25C28.195,10.25 27.931,10.361 27.708,10.583L26.042,12.292L24.292,10.542C24.069,10.319 23.819,10.215 23.542,10.229C23.264,10.243 23,10.361 22.75,10.583C22.528,10.833 22.417,11.104 22.417,11.396C22.417,11.687 22.528,11.944 22.75,12.167L24.458,13.875L22.708,15.583C22.486,15.833 22.382,16.097 22.396,16.375C22.41,16.653 22.528,16.917 22.75,17.167ZM7.792,35C7.042,35 6.389,34.722 5.833,34.167C5.278,33.611 5,32.958 5,32.208L5,7.792C5,7.042 5.278,6.389 5.833,5.833C6.389,5.278 7.042,5 7.792,5L32.208,5C32.958,5 33.611,5.278 34.167,5.833C34.722,6.389 35,7.042 35,7.792L35,32.208C35,32.958 34.722,33.611 34.167,34.167C33.611,34.722 32.958,35 32.208,35L7.792,35ZM7.792,32.208L32.208,32.208L32.208,7.792L7.792,7.792L7.792,32.208ZM7.792,32.208L7.792,7.792L7.792,32.208Z"/>
</svg>
