<svg width="100%" height="100%" viewBox="0 0 40 40" version="1.1" xmlns="http://www.w3.org/2000/svg" xmlns:xlink="http://www.w3.org/1999/xlink" xml:space="preserve" xmlns:serif="http://www.serif.com/">
    <path d="M20,25.042C19.805,25.042 19.632,25.014 19.479,24.958C19.326,24.903 19.181,24.806 19.042,24.667L10.958,16.583C10.708,16.333 10.59,16.007 10.604,15.604C10.618,15.201 10.75,14.875 11,14.625C11.278,14.347 11.604,14.222 11.979,14.25C12.354,14.278 12.681,14.417 12.958,14.667L20,21.708L27.083,14.625C27.333,14.375 27.659,14.243 28.062,14.229C28.465,14.215 28.792,14.361 29.042,14.667C29.319,14.917 29.444,15.236 29.417,15.625C29.389,16.014 29.25,16.347 29,16.625L20.958,24.667C20.819,24.806 20.674,24.903 20.521,24.958C20.368,25.014 20.195,25.042 20,25.042Z"/>
</svg>
