<svg width="100%" height="100%" viewBox="0 0 40 40" version="1.1" xmlns="http://www.w3.org/2000/svg" xmlns:xlink="http://www.w3.org/1999/xlink" xml:space="preserve" xmlns:serif="http://www.serif.com/">
    <path d="M18.042,30C17.653,30 17.326,29.868 17.062,29.604C16.799,29.34 16.667,29.014 16.667,28.625C16.667,28.208 16.799,27.868 17.062,27.604C17.326,27.34 17.653,27.208 18.042,27.208L21.958,27.208C22.347,27.208 22.674,27.347 22.938,27.625C23.201,27.903 23.333,28.236 23.333,28.625C23.333,29.014 23.201,29.34 22.938,29.604C22.674,29.868 22.347,30 21.958,30L18.042,30ZM6.375,12.792C5.986,12.792 5.66,12.653 5.396,12.375C5.132,12.097 5,11.764 5,11.375C5,10.986 5.132,10.66 5.396,10.396C5.66,10.132 5.986,10 6.375,10L33.625,10C34.014,10 34.34,10.132 34.604,10.396C34.868,10.66 35,10.986 35,11.375C35,11.792 34.868,12.132 34.604,12.396C34.34,12.66 34.014,12.792 33.625,12.792L6.375,12.792ZM11.375,21.375C10.986,21.375 10.66,21.243 10.396,20.979C10.132,20.715 10,20.389 10,20C10,19.611 10.132,19.285 10.396,19.021C10.66,18.757 10.986,18.625 11.375,18.625L28.625,18.625C29.014,18.625 29.34,18.757 29.604,19.021C29.868,19.285 30,19.611 30,20C30,20.389 29.868,20.715 29.604,20.979C29.34,21.243 29.014,21.375 28.625,21.375L11.375,21.375Z"/>
</svg>
