<svg width="100%" height="100%" viewBox="0 0 40 40" version="1.1" xmlns="http://www.w3.org/2000/svg" xmlns:xlink="http://www.w3.org/1999/xlink" xml:space="preserve" xmlns:serif="http://www.serif.com/"">
    <path d="M11.375,23.375L21.792,23.375C22.181,23.375 22.5,23.236 22.75,22.958C23,22.681 23.125,22.347 23.125,21.958C23.125,21.569 22.993,21.243 22.729,20.979C22.465,20.715 22.139,20.583 21.75,20.583L11.333,20.583C10.972,20.583 10.66,20.715 10.396,20.979C10.132,21.243 10,21.569 10,21.958C10,22.375 10.132,22.715 10.396,22.979C10.66,23.243 10.986,23.375 11.375,23.375ZM11.375,18.083L28.667,18.083C29.028,18.083 29.34,17.951 29.604,17.688C29.868,17.424 30,17.097 30,16.708C30,16.291 29.868,15.951 29.604,15.688C29.34,15.424 29.014,15.292 28.625,15.292L11.333,15.292C10.972,15.292 10.66,15.431 10.396,15.708C10.132,15.986 10,16.319 10,16.708C10,17.097 10.132,17.424 10.396,17.688C10.66,17.951 10.986,18.083 11.375,18.083ZM11.375,12.792L28.667,12.792C29.028,12.792 29.34,12.66 29.604,12.396C29.868,12.132 30,11.806 30,11.417C30,11.028 29.868,10.701 29.604,10.438C29.34,10.174 29.014,10.042 28.625,10.042L11.333,10.042C10.972,10.042 10.66,10.174 10.396,10.438C10.132,10.701 10,11.028 10,11.417C10,11.806 10.132,12.132 10.396,12.396C10.66,12.66 10.986,12.792 11.375,12.792ZM3.333,33.333L3.333,6.125C3.333,5.375 3.611,4.722 4.167,4.167C4.722,3.611 5.375,3.333 6.125,3.333L33.875,3.333C34.625,3.333 35.278,3.611 35.833,4.167C36.389,4.722 36.667,5.375 36.667,6.125L36.667,27.208C36.667,27.958 36.389,28.611 35.833,29.167C35.278,29.722 34.625,30 33.875,30L10,30L5.708,34.292C5.264,34.736 4.757,34.84 4.188,34.604C3.618,34.368 3.333,33.944 3.333,33.333ZM6.125,29.958L8.833,27.208L33.875,27.208L33.875,6.125L6.125,6.125L6.125,29.958ZM6.125,6.125L6.125,29.958L6.125,6.125Z"/>
</svg>
