<svg width="100%" height="100%" viewBox="0 0 40 40" version="1.1" xmlns="http://www.w3.org/2000/svg" xmlns:xlink="http://www.w3.org/1999/xlink" xml:space="preserve" xmlns:serif="http://www.serif.com/">
    <path d="M5.958,16.458C5.541,16.458 5.201,16.319 4.938,16.042C4.674,15.764 4.57,15.444 4.625,15.083C4.764,13.278 5.215,11.549 5.979,9.896C6.743,8.243 7.778,6.778 9.083,5.5C9.333,5.25 9.659,5.132 10.062,5.146C10.465,5.16 10.806,5.32 11.083,5.625C11.333,5.875 11.451,6.187 11.438,6.562C11.424,6.937 11.292,7.264 11.042,7.542C10.014,8.597 9.187,9.757 8.562,11.021C7.937,12.285 7.556,13.639 7.417,15.083C7.361,15.472 7.194,15.799 6.917,16.062C6.639,16.326 6.319,16.458 5.958,16.458ZM34.083,16.458C33.722,16.458 33.403,16.326 33.125,16.062C32.847,15.799 32.68,15.472 32.625,15.083C32.486,13.639 32.111,12.285 31.5,11.021C30.889,9.757 30.083,8.597 29.083,7.542C28.806,7.264 28.667,6.937 28.667,6.562C28.667,6.187 28.792,5.875 29.042,5.625C29.319,5.32 29.653,5.16 30.042,5.146C30.431,5.132 30.75,5.264 31,5.542C32.278,6.847 33.292,8.313 34.042,9.938C34.792,11.563 35.25,13.278 35.417,15.083C35.444,15.444 35.326,15.764 35.062,16.042C34.799,16.319 34.472,16.458 34.083,16.458ZM8.042,31.667C7.653,31.667 7.326,31.535 7.062,31.271C6.799,31.007 6.667,30.681 6.667,30.292C6.667,29.875 6.799,29.535 7.062,29.271C7.326,29.007 7.653,28.875 8.042,28.875L10.125,28.875L10.125,16.5C10.125,14.222 10.813,12.166 12.188,10.333C13.563,8.5 15.375,7.333 17.625,6.833L17.625,5.625C17.625,4.986 17.854,4.445 18.312,4C18.771,3.555 19.333,3.333 20,3.333C20.667,3.333 21.229,3.555 21.688,4C22.146,4.445 22.375,4.986 22.375,5.625L22.375,6.833C24.625,7.333 26.444,8.5 27.833,10.333C29.222,12.166 29.917,14.222 29.917,16.5L29.917,28.875L31.958,28.875C32.347,28.875 32.674,29.007 32.938,29.271C33.201,29.535 33.333,29.875 33.333,30.292C33.333,30.681 33.201,31.007 32.938,31.271C32.674,31.535 32.347,31.667 31.958,31.667L8.042,31.667ZM20,36.667C19.111,36.667 18.334,36.341 17.667,35.688C17,35.035 16.667,34.25 16.667,33.333L23.333,33.333C23.333,34.25 23.007,35.035 22.354,35.688C21.701,36.341 20.917,36.667 20,36.667Z"/>
</svg>
