<svg width="100%" height="100%" viewBox="0 0 40 40" version="1.1" xmlns="http://www.w3.org/2000/svg" xmlns:xlink="http://www.w3.org/1999/xlink" xml:space="preserve" xmlns:serif="http://www.serif.com/">
    <path d="M15.792,29.25C15.625,29.25 15.459,29.222 15.292,29.167C15.125,29.111 14.972,29.014 14.833,28.875L7.417,21.458C7.139,21.181 7.007,20.841 7.021,20.438C7.035,20.035 7.167,19.694 7.417,19.417C7.694,19.167 8.021,19.042 8.396,19.042C8.771,19.042 9.097,19.167 9.375,19.417L15.792,25.875L30.583,11.083C30.861,10.806 31.194,10.667 31.583,10.667C31.972,10.667 32.306,10.806 32.583,11.083C32.861,11.333 33,11.66 33,12.063C33,12.466 32.861,12.792 32.583,13.042L16.792,28.875C16.625,29.014 16.465,29.111 16.312,29.167C16.159,29.222 15.986,29.25 15.792,29.25Z"/>
</svg>
