<svg width="100%" height="100%" viewBox="0 0 40 40" version="1.1" xmlns="http://www.w3.org/2000/svg" xmlns:xlink="http://www.w3.org/1999/xlink" xml:space="preserve" xmlns:serif="http://www.serif.com/">
    <path d="M20,26.875C19.611,26.875 19.285,26.743 19.021,26.479C18.757,26.215 18.625,25.875 18.625,25.458L18.625,12.042L14.833,15.833C14.556,16.111 14.229,16.243 13.854,16.229C13.479,16.215 13.153,16.069 12.875,15.792C12.597,15.514 12.458,15.181 12.458,14.792C12.458,14.403 12.597,14.069 12.875,13.792L19.042,7.625C19.181,7.486 19.333,7.389 19.5,7.333C19.667,7.278 19.833,7.25 20,7.25C20.195,7.25 20.368,7.278 20.521,7.333C20.674,7.389 20.819,7.486 20.958,7.625L27.167,13.833C27.444,14.111 27.583,14.437 27.583,14.812C27.583,15.187 27.444,15.514 27.167,15.792C26.889,16.069 26.556,16.208 26.167,16.208C25.778,16.208 25.444,16.069 25.167,15.792L21.375,12.042L21.375,25.458C21.375,25.875 21.243,26.215 20.979,26.479C20.715,26.743 20.389,26.875 20,26.875ZM9.458,33.333C8.708,33.333 8.055,33.055 7.5,32.5C6.945,31.945 6.667,31.292 6.667,30.542L6.667,26.292C6.667,25.903 6.799,25.576 7.062,25.312C7.326,25.049 7.653,24.917 8.042,24.917C8.459,24.917 8.799,25.049 9.062,25.312C9.326,25.576 9.458,25.903 9.458,26.292L9.458,30.542L30.542,30.542L30.542,26.292C30.542,25.903 30.681,25.576 30.958,25.312C31.236,25.049 31.569,24.917 31.958,24.917C32.347,24.917 32.674,25.049 32.938,25.312C33.201,25.576 33.333,25.903 33.333,26.292L33.333,30.542C33.333,31.292 33.055,31.945 32.5,32.5C31.945,33.055 31.292,33.333 30.542,33.333L9.458,33.333Z"/>
</svg>
